<?xml version="1.0" encoding="UTF-8"?>
<svg xmlns="http://www.w3.org/2000/svg" xmlns:xlink="http://www.w3.org/1999/xlink" width="854" height="480" viewBox="0 0 854 480">
<defs>
<g>
<g id="glyph-0-0">
<path d="M 3.390625 -1.304688 C 3.355469 -1.300781 3.304688 -1.292969 3.242188 -1.285156 C 3.179688 -1.273438 3.128906 -1.257812 3.09375 -1.242188 C 3.046875 -1.21875 3.011719 -1.183594 2.996094 -1.144531 C 2.976562 -1.101562 2.964844 -1.050781 2.964844 -0.992188 L 2.964844 -0.738281 C 2.964844 -0.554688 2.964844 -0.429688 2.96875 -0.367188 C 2.972656 -0.300781 2.972656 -0.25 2.976562 -0.207031 C 2.773438 -0.117188 2.570312 -0.0429688 2.367188 0.00390625 C 2.164062 0.0546875 1.964844 0.078125 1.769531 0.078125 C 1.558594 0.078125 1.359375 0.0390625 1.164062 -0.0390625 C 0.972656 -0.117188 0.800781 -0.230469 0.65625 -0.375 C 0.511719 -0.519531 0.394531 -0.699219 0.308594 -0.90625 C 0.222656 -1.117188 0.179688 -1.351562 0.179688 -1.609375 C 0.179688 -1.859375 0.222656 -2.089844 0.304688 -2.300781 C 0.386719 -2.515625 0.5 -2.699219 0.652344 -2.855469 C 0.796875 -3.011719 0.972656 -3.128906 1.175781 -3.214844 C 1.378906 -3.300781 1.59375 -3.34375 1.824219 -3.34375 C 2.007812 -3.34375 2.167969 -3.320312 2.304688 -3.277344 C 2.441406 -3.230469 2.5625 -3.179688 2.667969 -3.117188 L 2.761719 -3.273438 L 2.945312 -3.273438 L 2.96875 -2.128906 L 2.777344 -2.128906 C 2.746094 -2.253906 2.707031 -2.378906 2.660156 -2.5 C 2.609375 -2.625 2.550781 -2.734375 2.472656 -2.828125 C 2.398438 -2.925781 2.304688 -3.003906 2.199219 -3.0625 C 2.089844 -3.117188 1.960938 -3.148438 1.808594 -3.148438 C 1.644531 -3.148438 1.496094 -3.113281 1.367188 -3.046875 C 1.238281 -2.980469 1.125 -2.878906 1.03125 -2.75 C 0.9375 -2.621094 0.863281 -2.460938 0.8125 -2.269531 C 0.761719 -2.078125 0.738281 -1.867188 0.738281 -1.632812 C 0.738281 -1.421875 0.761719 -1.226562 0.8125 -1.042969 C 0.863281 -0.859375 0.9375 -0.703125 1.03125 -0.566406 C 1.125 -0.429688 1.246094 -0.324219 1.390625 -0.246094 C 1.53125 -0.167969 1.695312 -0.125 1.875 -0.125 C 2.011719 -0.125 2.136719 -0.148438 2.246094 -0.1875 C 2.359375 -0.230469 2.4375 -0.273438 2.484375 -0.320312 C 2.496094 -0.402344 2.503906 -0.480469 2.503906 -0.5625 C 2.503906 -0.644531 2.503906 -0.714844 2.503906 -0.769531 L 2.503906 -0.949219 C 2.503906 -1.015625 2.496094 -1.070312 2.476562 -1.121094 C 2.460938 -1.171875 2.421875 -1.207031 2.367188 -1.230469 C 2.316406 -1.253906 2.25 -1.273438 2.160156 -1.285156 C 2.074219 -1.292969 2.007812 -1.300781 1.957031 -1.304688 L 1.957031 -1.472656 L 3.390625 -1.472656 Z "/>
</g>
<g id="glyph-0-1">
<path d="M 1.90625 -1.980469 C 1.90625 -1.902344 1.886719 -1.832031 1.847656 -1.773438 C 1.8125 -1.710938 1.75 -1.679688 1.671875 -1.679688 C 1.585938 -1.679688 1.519531 -1.703125 1.476562 -1.746094 C 1.429688 -1.792969 1.40625 -1.839844 1.40625 -1.894531 C 1.40625 -1.929688 1.410156 -1.960938 1.414062 -1.988281 C 1.421875 -2.015625 1.425781 -2.042969 1.429688 -2.070312 C 1.359375 -2.070312 1.273438 -2.042969 1.175781 -1.984375 C 1.078125 -1.925781 0.996094 -1.839844 0.929688 -1.734375 L 0.929688 -0.410156 C 0.929688 -0.355469 0.941406 -0.3125 0.960938 -0.277344 C 0.980469 -0.246094 1.015625 -0.21875 1.058594 -0.203125 C 1.097656 -0.1875 1.144531 -0.175781 1.207031 -0.167969 C 1.269531 -0.160156 1.320312 -0.15625 1.363281 -0.152344 L 1.363281 0 L 0.167969 0 L 0.167969 -0.152344 C 0.203125 -0.15625 0.238281 -0.160156 0.277344 -0.160156 C 0.3125 -0.164062 0.347656 -0.171875 0.375 -0.179688 C 0.417969 -0.195312 0.449219 -0.21875 0.46875 -0.253906 C 0.488281 -0.285156 0.5 -0.332031 0.5 -0.386719 L 0.5 -1.789062 C 0.5 -1.835938 0.488281 -1.882812 0.46875 -1.929688 C 0.445312 -1.976562 0.414062 -2.011719 0.375 -2.039062 C 0.34375 -2.058594 0.308594 -2.074219 0.269531 -2.082031 C 0.230469 -2.089844 0.1875 -2.09375 0.140625 -2.097656 L 0.140625 -2.25 L 0.898438 -2.300781 L 0.929688 -2.269531 L 0.929688 -1.949219 L 0.941406 -1.949219 C 1.035156 -2.074219 1.140625 -2.167969 1.257812 -2.230469 C 1.375 -2.296875 1.484375 -2.328125 1.578125 -2.328125 C 1.675781 -2.328125 1.753906 -2.296875 1.816406 -2.234375 C 1.875 -2.171875 1.90625 -2.085938 1.90625 -1.980469 Z "/>
</g>
<g id="glyph-0-2">
<path d="M 2.382812 -1.160156 C 2.382812 -1 2.359375 -0.84375 2.308594 -0.6875 C 2.257812 -0.535156 2.183594 -0.402344 2.089844 -0.296875 C 1.984375 -0.171875 1.863281 -0.0820312 1.722656 -0.0195312 C 1.582031 0.0390625 1.425781 0.0703125 1.25 0.0703125 C 1.105469 0.0703125 0.96875 0.0429688 0.835938 -0.0117188 C 0.707031 -0.0664062 0.589844 -0.148438 0.488281 -0.25 C 0.390625 -0.355469 0.308594 -0.480469 0.25 -0.628906 C 0.191406 -0.777344 0.160156 -0.941406 0.160156 -1.128906 C 0.160156 -1.484375 0.265625 -1.773438 0.472656 -2 C 0.679688 -2.226562 0.949219 -2.339844 1.285156 -2.339844 C 1.605469 -2.339844 1.867188 -2.230469 2.074219 -2.015625 C 2.28125 -1.800781 2.382812 -1.515625 2.382812 -1.160156 M 1.90625 -1.15625 C 1.90625 -1.269531 1.894531 -1.390625 1.871094 -1.519531 C 1.847656 -1.648438 1.816406 -1.757812 1.769531 -1.847656 C 1.71875 -1.941406 1.65625 -2.019531 1.574219 -2.078125 C 1.496094 -2.132812 1.398438 -2.164062 1.28125 -2.164062 C 1.164062 -2.164062 1.0625 -2.132812 0.976562 -2.074219 C 0.894531 -2.015625 0.824219 -1.9375 0.773438 -1.835938 C 0.722656 -1.742188 0.6875 -1.636719 0.667969 -1.515625 C 0.648438 -1.394531 0.640625 -1.277344 0.640625 -1.167969 C 0.640625 -1.019531 0.652344 -0.882812 0.675781 -0.757812 C 0.699219 -0.632812 0.738281 -0.519531 0.789062 -0.421875 C 0.839844 -0.324219 0.90625 -0.246094 0.988281 -0.191406 C 1.066406 -0.132812 1.164062 -0.105469 1.28125 -0.105469 C 1.472656 -0.105469 1.625 -0.199219 1.738281 -0.386719 C 1.851562 -0.570312 1.90625 -0.828125 1.90625 -1.15625 Z "/>
</g>
<g id="glyph-0-3">
<path d="M 3.554688 -2.125 C 3.488281 -2.121094 3.417969 -2.09375 3.34375 -2.046875 C 3.269531 -1.996094 3.214844 -1.925781 3.183594 -1.832031 C 3.105469 -1.605469 3.03125 -1.390625 2.964844 -1.1875 C 2.894531 -0.988281 2.820312 -0.757812 2.734375 -0.507812 C 2.707031 -0.425781 2.679688 -0.339844 2.652344 -0.25 C 2.621094 -0.15625 2.597656 -0.0703125 2.574219 0.015625 L 2.375 0.015625 L 1.761719 -1.660156 L 1.148438 0.015625 L 0.960938 0.015625 C 0.84375 -0.324219 0.730469 -0.664062 0.621094 -1 C 0.511719 -1.335938 0.414062 -1.628906 0.328125 -1.878906 C 0.304688 -1.949219 0.257812 -2.007812 0.1875 -2.046875 C 0.121094 -2.089844 0.0546875 -2.113281 -0.0117188 -2.121094 L -0.0117188 -2.273438 L 1.003906 -2.273438 L 1.003906 -2.113281 C 0.953125 -2.109375 0.898438 -2.101562 0.835938 -2.085938 C 0.777344 -2.070312 0.75 -2.046875 0.75 -2.011719 C 0.75 -2.003906 0.75 -1.992188 0.757812 -1.972656 C 0.761719 -1.953125 0.769531 -1.929688 0.777344 -1.90625 C 0.824219 -1.746094 0.882812 -1.566406 0.945312 -1.367188 C 1.007812 -1.167969 1.085938 -0.910156 1.183594 -0.59375 L 1.765625 -2.226562 L 1.988281 -2.226562 L 2.582031 -0.617188 C 2.644531 -0.820312 2.710938 -1.019531 2.777344 -1.214844 C 2.84375 -1.40625 2.898438 -1.585938 2.949219 -1.753906 C 2.960938 -1.792969 2.972656 -1.832031 2.980469 -1.863281 C 2.992188 -1.898438 2.996094 -1.929688 2.996094 -1.960938 C 2.996094 -1.988281 2.984375 -2.015625 2.957031 -2.035156 C 2.933594 -2.058594 2.902344 -2.074219 2.867188 -2.089844 C 2.839844 -2.101562 2.804688 -2.109375 2.769531 -2.117188 C 2.734375 -2.121094 2.707031 -2.125 2.6875 -2.125 L 2.6875 -2.273438 L 3.554688 -2.273438 Z "/>
</g>
<g id="glyph-0-4">
<path d="M 1.570312 -0.0976562 C 1.46875 -0.0585938 1.375 -0.0234375 1.285156 0.00390625 C 1.199219 0.0351562 1.089844 0.046875 0.960938 0.046875 C 0.769531 0.046875 0.632812 0 0.558594 -0.09375 C 0.480469 -0.191406 0.441406 -0.328125 0.441406 -0.503906 L 0.441406 -2.042969 L 0.03125 -2.042969 L 0.03125 -2.265625 L 0.449219 -2.265625 L 0.449219 -2.972656 L 0.871094 -2.972656 L 0.871094 -2.265625 L 1.523438 -2.265625 L 1.523438 -2.042969 L 0.875 -2.042969 L 0.875 -0.773438 C 0.875 -0.675781 0.878906 -0.597656 0.882812 -0.535156 C 0.890625 -0.46875 0.90625 -0.414062 0.933594 -0.367188 C 0.957031 -0.320312 0.996094 -0.289062 1.042969 -0.265625 C 1.09375 -0.242188 1.160156 -0.230469 1.242188 -0.230469 C 1.28125 -0.230469 1.335938 -0.234375 1.414062 -0.242188 C 1.488281 -0.246094 1.539062 -0.257812 1.570312 -0.265625 Z "/>
</g>
<g id="glyph-0-5">
<path d="M 2.640625 0 L 1.523438 0 L 1.523438 -0.152344 C 1.558594 -0.15625 1.597656 -0.160156 1.640625 -0.160156 C 1.683594 -0.164062 1.71875 -0.171875 1.746094 -0.179688 C 1.789062 -0.195312 1.820312 -0.21875 1.839844 -0.253906 C 1.863281 -0.285156 1.871094 -0.332031 1.871094 -0.386719 L 1.871094 -1.554688 C 1.871094 -1.71875 1.835938 -1.84375 1.757812 -1.929688 C 1.683594 -2.019531 1.589844 -2.0625 1.480469 -2.0625 C 1.398438 -2.0625 1.324219 -2.050781 1.257812 -2.023438 C 1.1875 -2 1.125 -1.96875 1.074219 -1.929688 C 1.019531 -1.890625 0.980469 -1.851562 0.953125 -1.816406 C 0.925781 -1.777344 0.902344 -1.742188 0.886719 -1.71875 L 0.886719 -0.410156 C 0.886719 -0.359375 0.898438 -0.316406 0.917969 -0.28125 C 0.941406 -0.246094 0.972656 -0.222656 1.015625 -0.203125 C 1.046875 -0.1875 1.082031 -0.175781 1.121094 -0.167969 C 1.15625 -0.160156 1.195312 -0.15625 1.238281 -0.152344 L 1.238281 0 L 0.125 0 L 0.125 -0.152344 C 0.160156 -0.15625 0.195312 -0.160156 0.234375 -0.164062 C 0.273438 -0.167969 0.304688 -0.171875 0.332031 -0.179688 C 0.375 -0.195312 0.40625 -0.21875 0.425781 -0.253906 C 0.449219 -0.289062 0.457031 -0.332031 0.457031 -0.386719 L 0.457031 -3.035156 C 0.457031 -3.089844 0.445312 -3.140625 0.421875 -3.195312 C 0.398438 -3.246094 0.367188 -3.285156 0.328125 -3.3125 C 0.300781 -3.332031 0.253906 -3.34375 0.183594 -3.355469 C 0.113281 -3.363281 0.0585938 -3.367188 0.015625 -3.371094 L 0.015625 -3.519531 L 0.855469 -3.570312 L 0.886719 -3.535156 L 0.886719 -1.949219 L 0.898438 -1.949219 C 0.949219 -2 0.992188 -2.042969 1.035156 -2.082031 C 1.078125 -2.121094 1.132812 -2.164062 1.199219 -2.207031 C 1.257812 -2.242188 1.328125 -2.273438 1.40625 -2.300781 C 1.484375 -2.324219 1.574219 -2.335938 1.671875 -2.335938 C 1.875 -2.335938 2.03125 -2.273438 2.140625 -2.144531 C 2.25 -2.015625 2.304688 -1.832031 2.304688 -1.589844 L 2.304688 -0.40625 C 2.304688 -0.351562 2.316406 -0.308594 2.335938 -0.277344 C 2.355469 -0.242188 2.386719 -0.214844 2.429688 -0.199219 C 2.46875 -0.183594 2.5 -0.175781 2.527344 -0.167969 C 2.554688 -0.160156 2.59375 -0.15625 2.640625 -0.152344 Z "/>
</g>
</g>
</defs>
<g fill="rgb(100%, 100%, 100%)" fill-opacity="1">
<use xlink:href="#glyph-0-0" x="30" y="24.331055"/>
<use xlink:href="#glyph-0-1" x="33" y="24.331055"/>
<use xlink:href="#glyph-0-2" x="35" y="24.331055"/>
<use xlink:href="#glyph-0-3" x="38" y="24.331055"/>
<use xlink:href="#glyph-0-4" x="41" y="24.331055"/>
<use xlink:href="#glyph-0-5" x="43" y="24.331055"/>
</g>
</svg>
