<?xml version="1.0" encoding="UTF-8"?>
<svg xmlns="http://www.w3.org/2000/svg" xmlns:xlink="http://www.w3.org/1999/xlink" width="854" height="480" viewBox="0 0 854 480">
<defs>
<g>
<g id="glyph-0-0">
<path d="M 3.9375 -1.324219 C 3.9375 -0.929688 3.769531 -0.589844 3.429688 -0.308594 C 3.085938 -0.0234375 2.640625 0.121094 2.085938 0.121094 C 1.566406 0.121094 1.148438 -0.0117188 0.835938 -0.273438 C 0.523438 -0.53125 0.367188 -0.867188 0.367188 -1.28125 C 0.367188 -1.582031 0.460938 -1.835938 0.644531 -2.039062 C 0.828125 -2.242188 1.101562 -2.414062 1.464844 -2.558594 C 1.164062 -2.722656 0.941406 -2.90625 0.792969 -3.105469 C 0.644531 -3.308594 0.570312 -3.53125 0.570312 -3.785156 C 0.570312 -4.167969 0.734375 -4.488281 1.058594 -4.746094 C 1.386719 -5.003906 1.773438 -5.136719 2.230469 -5.136719 C 2.683594 -5.136719 3.050781 -5.011719 3.332031 -4.769531 C 3.613281 -4.523438 3.753906 -4.214844 3.753906 -3.847656 C 3.753906 -3.609375 3.675781 -3.386719 3.519531 -3.171875 C 3.363281 -2.960938 3.136719 -2.785156 2.835938 -2.648438 C 3.226562 -2.480469 3.507812 -2.296875 3.679688 -2.09375 C 3.851562 -1.894531 3.9375 -1.636719 3.9375 -1.324219 M 3.085938 -3.886719 C 3.085938 -4.171875 3 -4.40625 2.832031 -4.585938 C 2.660156 -4.765625 2.441406 -4.855469 2.175781 -4.855469 C 1.910156 -4.855469 1.691406 -4.769531 1.523438 -4.597656 C 1.355469 -4.425781 1.269531 -4.210938 1.269531 -3.953125 C 1.269531 -3.707031 1.367188 -3.496094 1.558594 -3.324219 C 1.75 -3.152344 2.09375 -2.96875 2.589844 -2.777344 C 2.765625 -2.886719 2.890625 -3.039062 2.96875 -3.222656 C 3.046875 -3.410156 3.085938 -3.628906 3.085938 -3.886719 M 3.234375 -1.160156 C 3.234375 -1.308594 3.203125 -1.4375 3.140625 -1.550781 C 3.074219 -1.660156 2.984375 -1.761719 2.863281 -1.855469 C 2.75 -1.945312 2.589844 -2.039062 2.382812 -2.136719 C 2.175781 -2.234375 1.953125 -2.332031 1.714844 -2.433594 C 1.488281 -2.3125 1.324219 -2.15625 1.214844 -1.964844 C 1.109375 -1.777344 1.058594 -1.5625 1.058594 -1.320312 C 1.058594 -0.972656 1.160156 -0.695312 1.363281 -0.480469 C 1.566406 -0.269531 1.835938 -0.164062 2.175781 -0.164062 C 2.5 -0.164062 2.757812 -0.257812 2.949219 -0.445312 C 3.140625 -0.632812 3.234375 -0.871094 3.234375 -1.160156 Z "/>
</g>
<g id="glyph-0-1">
<path d="M 2.777344 -3.820312 C 2.777344 -3.40625 2.667969 -3.085938 2.445312 -2.855469 C 2.21875 -2.628906 1.933594 -2.515625 1.578125 -2.515625 C 1.226562 -2.515625 0.941406 -2.628906 0.71875 -2.855469 C 0.496094 -3.085938 0.382812 -3.40625 0.382812 -3.820312 C 0.382812 -4.210938 0.492188 -4.523438 0.710938 -4.765625 C 0.929688 -5.003906 1.21875 -5.125 1.582031 -5.125 C 1.941406 -5.125 2.230469 -5.003906 2.449219 -4.765625 C 2.667969 -4.523438 2.777344 -4.210938 2.777344 -3.820312 M 2.183594 -3.820312 C 2.183594 -4.125 2.132812 -4.378906 2.03125 -4.574219 C 1.929688 -4.769531 1.78125 -4.867188 1.582031 -4.867188 C 1.382812 -4.867188 1.230469 -4.769531 1.128906 -4.574219 C 1.03125 -4.378906 0.980469 -4.125 0.980469 -3.820312 C 0.980469 -3.503906 1.03125 -3.253906 1.132812 -3.058594 C 1.234375 -2.867188 1.382812 -2.773438 1.578125 -2.773438 C 1.777344 -2.773438 1.925781 -2.867188 2.03125 -3.058594 C 2.132812 -3.253906 2.183594 -3.503906 2.183594 -3.820312 M 5.519531 -1.191406 C 5.519531 -0.777344 5.40625 -0.457031 5.183594 -0.230469 C 4.960938 0 4.671875 0.113281 4.320312 0.113281 C 3.96875 0.113281 3.679688 0 3.457031 -0.230469 C 3.234375 -0.457031 3.125 -0.777344 3.125 -1.191406 C 3.125 -1.582031 3.234375 -1.898438 3.449219 -2.136719 C 3.667969 -2.378906 3.960938 -2.496094 4.324219 -2.496094 C 4.683594 -2.496094 4.972656 -2.378906 5.191406 -2.136719 C 5.410156 -1.898438 5.519531 -1.582031 5.519531 -1.191406 M 4.921875 -1.191406 C 4.921875 -1.5 4.871094 -1.75 4.773438 -1.945312 C 4.671875 -2.140625 4.519531 -2.238281 4.324219 -2.238281 C 4.121094 -2.238281 3.96875 -2.140625 3.871094 -1.945312 C 3.769531 -1.75 3.71875 -1.5 3.71875 -1.191406 C 3.71875 -0.878906 3.769531 -0.625 3.871094 -0.433594 C 3.972656 -0.242188 4.121094 -0.144531 4.320312 -0.144531 C 4.519531 -0.144531 4.667969 -0.242188 4.769531 -0.433594 C 4.871094 -0.625 4.921875 -0.878906 4.921875 -1.191406 M 5.285156 -5.023438 L 1.125 0 L 0.640625 0 L 4.792969 -5.023438 Z "/>
</g>
</g>
</defs>
<g fill="rgb(0%, 78.431373%, 58.823529%)" fill-opacity="1">
<use xlink:href="#glyph-0-0" x="30" y="26.623047"/>
<use xlink:href="#glyph-0-1" x="34" y="26.623047"/>
</g>
</svg>
