<?xml version="1.0" encoding="UTF-8"?>
<svg xmlns="http://www.w3.org/2000/svg" xmlns:xlink="http://www.w3.org/1999/xlink" width="854" height="480" viewBox="0 0 854 480">
<defs>
<g>
<g id="glyph-0-0">
<path d="M 2.261719 -1.5 C 2.332031 -1.425781 2.382812 -1.339844 2.414062 -1.25 C 2.449219 -1.15625 2.464844 -1.050781 2.464844 -0.929688 C 2.464844 -0.640625 2.359375 -0.402344 2.144531 -0.214844 C 1.929688 -0.0273438 1.664062 0.0664062 1.347656 0.0664062 C 1.203125 0.0664062 1.058594 0.0429688 0.910156 0 C 0.765625 -0.046875 0.640625 -0.101562 0.53125 -0.167969 L 0.433594 0.00390625 L 0.25 0.00390625 L 0.214844 -1.117188 L 0.402344 -1.117188 C 0.441406 -0.980469 0.488281 -0.855469 0.539062 -0.742188 C 0.589844 -0.632812 0.65625 -0.527344 0.742188 -0.429688 C 0.824219 -0.339844 0.914062 -0.269531 1.023438 -0.214844 C 1.128906 -0.160156 1.253906 -0.132812 1.394531 -0.132812 C 1.5 -0.132812 1.59375 -0.148438 1.671875 -0.175781 C 1.753906 -0.203125 1.816406 -0.242188 1.867188 -0.292969 C 1.914062 -0.34375 1.953125 -0.402344 1.976562 -0.472656 C 2 -0.539062 2.011719 -0.621094 2.011719 -0.707031 C 2.011719 -0.839844 1.972656 -0.960938 1.898438 -1.074219 C 1.828125 -1.1875 1.714844 -1.273438 1.570312 -1.332031 C 1.46875 -1.371094 1.355469 -1.414062 1.226562 -1.464844 C 1.097656 -1.511719 0.984375 -1.558594 0.890625 -1.601562 C 0.707031 -1.683594 0.566406 -1.792969 0.460938 -1.925781 C 0.359375 -2.0625 0.308594 -2.238281 0.308594 -2.453125 C 0.308594 -2.578125 0.335938 -2.695312 0.386719 -2.800781 C 0.4375 -2.910156 0.507812 -3.003906 0.601562 -3.089844 C 0.691406 -3.171875 0.796875 -3.234375 0.917969 -3.277344 C 1.039062 -3.324219 1.167969 -3.347656 1.296875 -3.347656 C 1.449219 -3.347656 1.582031 -3.324219 1.703125 -3.277344 C 1.820312 -3.230469 1.929688 -3.175781 2.027344 -3.117188 L 2.125 -3.273438 L 2.308594 -3.273438 L 2.328125 -2.1875 L 2.140625 -2.1875 C 2.105469 -2.3125 2.066406 -2.429688 2.027344 -2.542969 C 1.984375 -2.65625 1.929688 -2.761719 1.859375 -2.851562 C 1.792969 -2.941406 1.714844 -3.011719 1.617188 -3.066406 C 1.523438 -3.117188 1.40625 -3.144531 1.269531 -3.144531 C 1.121094 -3.144531 0.996094 -3.097656 0.894531 -3.003906 C 0.792969 -2.910156 0.738281 -2.796875 0.738281 -2.660156 C 0.738281 -2.519531 0.773438 -2.402344 0.839844 -2.308594 C 0.90625 -2.214844 1 -2.140625 1.128906 -2.078125 C 1.238281 -2.027344 1.351562 -1.980469 1.457031 -1.941406 C 1.566406 -1.902344 1.671875 -1.859375 1.773438 -1.816406 C 1.867188 -1.773438 1.953125 -1.730469 2.039062 -1.679688 C 2.125 -1.628906 2.199219 -1.570312 2.261719 -1.5 Z "/>
</g>
<g id="glyph-0-1">
<path d="M 2.320312 -0.0429688 C 2.246094 -0.015625 2.183594 0.00390625 2.128906 0.0234375 C 2.074219 0.0390625 2.011719 0.046875 1.945312 0.046875 C 1.824219 0.046875 1.726562 0.0195312 1.65625 -0.0390625 C 1.585938 -0.09375 1.539062 -0.175781 1.519531 -0.285156 L 1.503906 -0.285156 C 1.40625 -0.171875 1.296875 -0.0898438 1.183594 -0.03125 C 1.070312 0.0273438 0.929688 0.0585938 0.769531 0.0585938 C 0.597656 0.0585938 0.460938 0.00390625 0.347656 -0.0976562 C 0.238281 -0.203125 0.183594 -0.339844 0.183594 -0.507812 C 0.183594 -0.597656 0.195312 -0.675781 0.222656 -0.746094 C 0.246094 -0.8125 0.28125 -0.875 0.332031 -0.929688 C 0.371094 -0.976562 0.421875 -1.019531 0.484375 -1.054688 C 0.546875 -1.089844 0.605469 -1.121094 0.660156 -1.140625 C 0.730469 -1.167969 0.871094 -1.214844 1.082031 -1.285156 C 1.292969 -1.359375 1.4375 -1.414062 1.511719 -1.453125 L 1.511719 -1.679688 C 1.511719 -1.699219 1.507812 -1.738281 1.496094 -1.796875 C 1.488281 -1.851562 1.472656 -1.90625 1.445312 -1.957031 C 1.414062 -2.015625 1.371094 -2.0625 1.3125 -2.105469 C 1.257812 -2.148438 1.175781 -2.171875 1.074219 -2.171875 C 1.003906 -2.171875 0.9375 -2.15625 0.878906 -2.132812 C 0.816406 -2.109375 0.773438 -2.085938 0.75 -2.058594 C 0.75 -2.027344 0.757812 -1.984375 0.769531 -1.921875 C 0.785156 -1.863281 0.792969 -1.808594 0.792969 -1.757812 C 0.792969 -1.703125 0.769531 -1.652344 0.71875 -1.609375 C 0.671875 -1.566406 0.605469 -1.542969 0.519531 -1.542969 C 0.441406 -1.542969 0.386719 -1.570312 0.347656 -1.625 C 0.3125 -1.679688 0.296875 -1.742188 0.296875 -1.808594 C 0.296875 -1.878906 0.320312 -1.945312 0.371094 -2.011719 C 0.421875 -2.074219 0.484375 -2.132812 0.566406 -2.183594 C 0.632812 -2.226562 0.71875 -2.261719 0.816406 -2.292969 C 0.914062 -2.324219 1.011719 -2.339844 1.105469 -2.339844 C 1.234375 -2.339844 1.347656 -2.328125 1.441406 -2.3125 C 1.539062 -2.292969 1.625 -2.257812 1.703125 -2.199219 C 1.78125 -2.140625 1.84375 -2.0625 1.882812 -1.964844 C 1.921875 -1.867188 1.945312 -1.742188 1.945312 -1.589844 C 1.945312 -1.367188 1.941406 -1.175781 1.9375 -1.003906 C 1.933594 -0.835938 1.929688 -0.648438 1.929688 -0.449219 C 1.929688 -0.386719 1.941406 -0.339844 1.960938 -0.304688 C 1.980469 -0.269531 2.015625 -0.238281 2.058594 -0.214844 C 2.078125 -0.199219 2.117188 -0.191406 2.167969 -0.191406 C 2.214844 -0.191406 2.265625 -0.1875 2.320312 -0.1875 L 2.320312 -0.0429688 M 1.515625 -1.257812 C 1.382812 -1.21875 1.269531 -1.183594 1.171875 -1.144531 C 1.074219 -1.109375 0.980469 -1.0625 0.898438 -1.007812 C 0.820312 -0.953125 0.757812 -0.894531 0.714844 -0.820312 C 0.671875 -0.75 0.648438 -0.664062 0.648438 -0.566406 C 0.648438 -0.4375 0.679688 -0.34375 0.75 -0.285156 C 0.816406 -0.222656 0.898438 -0.195312 1.003906 -0.195312 C 1.113281 -0.195312 1.207031 -0.21875 1.292969 -0.273438 C 1.375 -0.328125 1.445312 -0.390625 1.5 -0.460938 Z "/>
</g>
<g id="glyph-0-2">
<path d="M 1.859375 -3.292969 C 1.859375 -3.222656 1.839844 -3.164062 1.804688 -3.117188 C 1.765625 -3.070312 1.710938 -3.046875 1.636719 -3.046875 C 1.585938 -3.046875 1.546875 -3.054688 1.507812 -3.078125 C 1.472656 -3.097656 1.441406 -3.125 1.410156 -3.15625 C 1.378906 -3.191406 1.351562 -3.230469 1.324219 -3.273438 C 1.296875 -3.316406 1.273438 -3.351562 1.257812 -3.375 C 1.152344 -3.371094 1.074219 -3.300781 1.019531 -3.160156 C 0.960938 -3.023438 0.933594 -2.800781 0.933594 -2.496094 L 0.933594 -2.265625 L 1.519531 -2.265625 L 1.519531 -2.042969 L 0.933594 -2.042969 L 0.933594 -0.410156 C 0.933594 -0.355469 0.945312 -0.3125 0.964844 -0.277344 C 0.984375 -0.246094 1.019531 -0.21875 1.0625 -0.203125 C 1.101562 -0.1875 1.148438 -0.179688 1.210938 -0.167969 C 1.273438 -0.160156 1.324219 -0.15625 1.371094 -0.152344 L 1.371094 0 L 0.171875 0 L 0.171875 -0.152344 C 0.207031 -0.15625 0.242188 -0.160156 0.28125 -0.160156 C 0.316406 -0.164062 0.351562 -0.171875 0.378906 -0.179688 C 0.421875 -0.195312 0.453125 -0.21875 0.472656 -0.253906 C 0.496094 -0.285156 0.503906 -0.332031 0.503906 -0.386719 L 0.503906 -2.042969 L 0.0546875 -2.042969 L 0.0546875 -2.265625 L 0.503906 -2.265625 L 0.503906 -2.410156 C 0.503906 -2.753906 0.59375 -3.035156 0.773438 -3.25 C 0.953125 -3.460938 1.175781 -3.570312 1.445312 -3.570312 C 1.582031 -3.570312 1.6875 -3.542969 1.753906 -3.488281 C 1.824219 -3.433594 1.859375 -3.371094 1.859375 -3.292969 Z "/>
</g>
<g id="glyph-0-3">
<path d="M 2.1875 -0.535156 C 2.089844 -0.355469 1.964844 -0.210938 1.804688 -0.101562 C 1.644531 0.0078125 1.460938 0.0585938 1.253906 0.0585938 C 1.070312 0.0585938 0.910156 0.0273438 0.769531 -0.0351562 C 0.632812 -0.101562 0.519531 -0.1875 0.429688 -0.300781 C 0.34375 -0.410156 0.277344 -0.539062 0.230469 -0.6875 C 0.1875 -0.835938 0.167969 -0.992188 0.167969 -1.15625 C 0.167969 -1.304688 0.191406 -1.449219 0.238281 -1.589844 C 0.285156 -1.730469 0.351562 -1.859375 0.441406 -1.972656 C 0.53125 -2.082031 0.640625 -2.171875 0.769531 -2.238281 C 0.898438 -2.304688 1.042969 -2.339844 1.207031 -2.339844 C 1.371094 -2.339844 1.515625 -2.3125 1.632812 -2.261719 C 1.75 -2.207031 1.847656 -2.136719 1.921875 -2.046875 C 1.992188 -1.960938 2.042969 -1.859375 2.078125 -1.742188 C 2.113281 -1.625 2.128906 -1.496094 2.128906 -1.359375 L 2.128906 -1.207031 L 0.625 -1.207031 C 0.625 -1.058594 0.640625 -0.921875 0.667969 -0.800781 C 0.695312 -0.679688 0.742188 -0.574219 0.800781 -0.480469 C 0.863281 -0.390625 0.941406 -0.320312 1.039062 -0.269531 C 1.132812 -0.21875 1.25 -0.191406 1.382812 -0.191406 C 1.519531 -0.191406 1.636719 -0.222656 1.738281 -0.289062 C 1.835938 -0.351562 1.933594 -0.46875 2.023438 -0.632812 L 2.1875 -0.535156 M 1.675781 -1.402344 C 1.675781 -1.488281 1.667969 -1.578125 1.65625 -1.679688 C 1.640625 -1.777344 1.617188 -1.859375 1.585938 -1.925781 C 1.550781 -1.996094 1.5 -2.050781 1.4375 -2.097656 C 1.378906 -2.140625 1.296875 -2.164062 1.203125 -2.164062 C 1.039062 -2.164062 0.90625 -2.097656 0.800781 -1.960938 C 0.691406 -1.828125 0.632812 -1.640625 0.625 -1.402344 Z "/>
</g>
<g id="glyph-0-4">
<path d="M 1.570312 -0.0976562 C 1.46875 -0.0585938 1.375 -0.0234375 1.285156 0.00390625 C 1.199219 0.0351562 1.089844 0.046875 0.960938 0.046875 C 0.769531 0.046875 0.632812 0 0.558594 -0.09375 C 0.480469 -0.191406 0.441406 -0.328125 0.441406 -0.503906 L 0.441406 -2.042969 L 0.03125 -2.042969 L 0.03125 -2.265625 L 0.449219 -2.265625 L 0.449219 -2.972656 L 0.871094 -2.972656 L 0.871094 -2.265625 L 1.523438 -2.265625 L 1.523438 -2.042969 L 0.875 -2.042969 L 0.875 -0.773438 C 0.875 -0.675781 0.878906 -0.597656 0.882812 -0.535156 C 0.890625 -0.46875 0.90625 -0.414062 0.933594 -0.367188 C 0.957031 -0.320312 0.996094 -0.289062 1.042969 -0.265625 C 1.09375 -0.242188 1.160156 -0.230469 1.242188 -0.230469 C 1.28125 -0.230469 1.335938 -0.234375 1.414062 -0.242188 C 1.488281 -0.246094 1.539062 -0.257812 1.570312 -0.265625 Z "/>
</g>
<g id="glyph-0-5">
<path d="M -0.0078125 0.742188 C -0.0078125 0.664062 0.015625 0.601562 0.0546875 0.554688 C 0.0976562 0.507812 0.152344 0.480469 0.214844 0.480469 C 0.261719 0.480469 0.304688 0.492188 0.339844 0.507812 C 0.375 0.527344 0.40625 0.550781 0.4375 0.582031 C 0.457031 0.601562 0.484375 0.632812 0.507812 0.675781 C 0.535156 0.714844 0.554688 0.746094 0.570312 0.773438 C 0.648438 0.730469 0.742188 0.621094 0.847656 0.449219 C 0.953125 0.273438 1.03125 0.121094 1.078125 -0.0117188 C 0.933594 -0.375 0.800781 -0.703125 0.683594 -0.988281 C 0.5625 -1.277344 0.441406 -1.574219 0.3125 -1.882812 C 0.28125 -1.953125 0.234375 -2.007812 0.164062 -2.046875 C 0.09375 -2.085938 0.0234375 -2.109375 -0.0429688 -2.121094 L -0.0429688 -2.273438 L 0.996094 -2.273438 L 0.996094 -2.113281 C 0.949219 -2.109375 0.894531 -2.101562 0.828125 -2.082031 C 0.765625 -2.066406 0.730469 -2.046875 0.730469 -2.023438 C 0.730469 -2.011719 0.734375 -1.996094 0.742188 -1.976562 C 0.75 -1.953125 0.757812 -1.933594 0.765625 -1.910156 C 0.824219 -1.757812 0.914062 -1.539062 1.03125 -1.25 C 1.152344 -0.964844 1.246094 -0.734375 1.3125 -0.5625 C 1.378906 -0.726562 1.453125 -0.898438 1.527344 -1.074219 C 1.601562 -1.25 1.683594 -1.457031 1.777344 -1.699219 C 1.789062 -1.726562 1.804688 -1.765625 1.824219 -1.820312 C 1.84375 -1.871094 1.855469 -1.914062 1.855469 -1.949219 C 1.855469 -1.992188 1.820312 -2.027344 1.75 -2.0625 C 1.679688 -2.097656 1.613281 -2.117188 1.550781 -2.125 L 1.550781 -2.273438 L 2.394531 -2.273438 L 2.394531 -2.128906 C 2.347656 -2.121094 2.285156 -2.097656 2.210938 -2.050781 C 2.136719 -2.003906 2.078125 -1.941406 2.042969 -1.859375 C 1.859375 -1.433594 1.699219 -1.046875 1.554688 -0.699219 C 1.414062 -0.351562 1.304688 -0.09375 1.230469 0.0703125 C 1.132812 0.285156 1.046875 0.453125 0.972656 0.574219 C 0.894531 0.695312 0.820312 0.789062 0.75 0.859375 C 0.679688 0.925781 0.613281 0.96875 0.558594 0.992188 C 0.5 1.011719 0.441406 1.023438 0.378906 1.023438 C 0.257812 1.023438 0.164062 0.996094 0.09375 0.9375 C 0.0273438 0.882812 -0.0078125 0.816406 -0.0078125 0.742188 Z "/>
</g>
</g>
</defs>
<g fill="rgb(100%, 100%, 100%)" fill-opacity="1">
<use xlink:href="#glyph-0-0" x="30" y="24.331055"/>
<use xlink:href="#glyph-0-1" x="33" y="24.331055"/>
<use xlink:href="#glyph-0-2" x="35" y="24.331055"/>
<use xlink:href="#glyph-0-3" x="37" y="24.331055"/>
<use xlink:href="#glyph-0-4" x="39" y="24.331055"/>
<use xlink:href="#glyph-0-5" x="41" y="24.331055"/>
</g>
</svg>
