<?xml version="1.0" encoding="UTF-8"?>
<svg xmlns="http://www.w3.org/2000/svg" xmlns:xlink="http://www.w3.org/1999/xlink" width="854" height="480" viewBox="0 0 854 480">
<defs>
<g>
<g id="glyph-0-0">
<path d="M 2.453125 -0.792969 L 2.402344 0 L 0.164062 0 L 0.164062 -0.136719 C 0.203125 -0.136719 0.25 -0.144531 0.316406 -0.152344 C 0.378906 -0.160156 0.417969 -0.167969 0.4375 -0.175781 C 0.480469 -0.195312 0.507812 -0.21875 0.523438 -0.25 C 0.539062 -0.28125 0.546875 -0.320312 0.546875 -0.367188 L 0.546875 -2.304688 C 0.546875 -2.34375 0.539062 -2.382812 0.527344 -2.414062 C 0.511719 -2.445312 0.484375 -2.472656 0.4375 -2.492188 C 0.40625 -2.511719 0.359375 -2.523438 0.300781 -2.539062 C 0.242188 -2.550781 0.199219 -2.558594 0.164062 -2.558594 L 0.164062 -2.695312 L 2.25 -2.695312 L 2.25 -2.046875 L 2.105469 -2.046875 C 2.082031 -2.140625 2.027344 -2.242188 1.941406 -2.351562 C 1.859375 -2.460938 1.777344 -2.519531 1.703125 -2.53125 C 1.664062 -2.535156 1.617188 -2.539062 1.5625 -2.539062 C 1.507812 -2.542969 1.445312 -2.542969 1.375 -2.542969 L 0.953125 -2.542969 L 0.953125 -1.472656 L 1.253906 -1.472656 C 1.351562 -1.472656 1.425781 -1.484375 1.46875 -1.5 C 1.515625 -1.519531 1.554688 -1.550781 1.585938 -1.59375 C 1.617188 -1.628906 1.640625 -1.679688 1.660156 -1.742188 C 1.679688 -1.800781 1.691406 -1.859375 1.699219 -1.914062 L 1.839844 -1.914062 L 1.839844 -0.859375 L 1.699219 -0.859375 C 1.691406 -0.917969 1.679688 -0.984375 1.65625 -1.050781 C 1.636719 -1.117188 1.613281 -1.167969 1.585938 -1.199219 C 1.546875 -1.246094 1.503906 -1.28125 1.453125 -1.296875 C 1.402344 -1.308594 1.335938 -1.316406 1.253906 -1.316406 L 0.953125 -1.316406 L 0.953125 -0.511719 C 0.953125 -0.429688 0.957031 -0.367188 0.96875 -0.320312 C 0.980469 -0.273438 1.003906 -0.238281 1.035156 -0.210938 C 1.066406 -0.1875 1.113281 -0.171875 1.167969 -0.167969 C 1.226562 -0.160156 1.308594 -0.15625 1.414062 -0.15625 C 1.453125 -0.15625 1.511719 -0.15625 1.578125 -0.15625 C 1.648438 -0.15625 1.703125 -0.160156 1.75 -0.164062 C 1.800781 -0.167969 1.847656 -0.175781 1.898438 -0.191406 C 1.953125 -0.203125 1.988281 -0.222656 2.007812 -0.246094 C 2.066406 -0.304688 2.128906 -0.398438 2.191406 -0.519531 C 2.257812 -0.644531 2.296875 -0.734375 2.316406 -0.792969 Z "/>
</g>
<g id="glyph-0-1">
<path d="M 3.429688 0 L 2.238281 0 L 2.238281 -0.136719 C 2.28125 -0.136719 2.335938 -0.140625 2.40625 -0.148438 C 2.472656 -0.15625 2.519531 -0.167969 2.542969 -0.179688 C 2.585938 -0.203125 2.613281 -0.230469 2.632812 -0.261719 C 2.648438 -0.292969 2.660156 -0.332031 2.660156 -0.378906 L 2.660156 -2.339844 L 2.628906 -2.339844 L 1.710938 -0.0429688 L 1.617188 -0.0429688 L 0.742188 -2.386719 L 0.714844 -2.386719 L 0.714844 -0.777344 C 0.714844 -0.621094 0.726562 -0.503906 0.746094 -0.421875 C 0.765625 -0.34375 0.796875 -0.285156 0.835938 -0.25 C 0.863281 -0.222656 0.921875 -0.195312 1.007812 -0.171875 C 1.097656 -0.148438 1.152344 -0.136719 1.179688 -0.136719 L 1.179688 0 L 0.0898438 0 L 0.0898438 -0.136719 C 0.148438 -0.140625 0.207031 -0.148438 0.269531 -0.164062 C 0.332031 -0.175781 0.382812 -0.199219 0.414062 -0.226562 C 0.460938 -0.261719 0.492188 -0.316406 0.507812 -0.390625 C 0.523438 -0.460938 0.53125 -0.585938 0.53125 -0.757812 L 0.53125 -2.136719 C 0.53125 -2.214844 0.523438 -2.28125 0.503906 -2.332031 C 0.484375 -2.382812 0.457031 -2.425781 0.421875 -2.457031 C 0.382812 -2.488281 0.335938 -2.515625 0.277344 -2.53125 C 0.21875 -2.546875 0.164062 -2.558594 0.109375 -2.558594 L 0.109375 -2.695312 L 1.027344 -2.695312 L 1.800781 -0.671875 L 2.457031 -2.363281 C 2.480469 -2.425781 2.503906 -2.492188 2.519531 -2.558594 C 2.535156 -2.625 2.546875 -2.671875 2.546875 -2.695312 L 3.425781 -2.695312 L 3.425781 -2.558594 C 3.390625 -2.558594 3.34375 -2.554688 3.289062 -2.542969 C 3.234375 -2.53125 3.195312 -2.523438 3.167969 -2.515625 C 3.125 -2.5 3.097656 -2.472656 3.082031 -2.4375 C 3.066406 -2.402344 3.058594 -2.363281 3.058594 -2.324219 L 3.058594 -0.378906 C 3.058594 -0.335938 3.066406 -0.296875 3.082031 -0.269531 C 3.097656 -0.238281 3.125 -0.210938 3.167969 -0.1875 C 3.191406 -0.175781 3.234375 -0.164062 3.292969 -0.152344 C 3.347656 -0.140625 3.394531 -0.136719 3.429688 -0.136719 Z "/>
</g>
<g id="glyph-0-2">
<path d="M 1.652344 -2.890625 L 0.339844 0.804688 L 0.09375 0.804688 L 1.398438 -2.890625 Z "/>
</g>
<g id="glyph-0-3">
</g>
<g id="glyph-1-0">
<path d="M 2.765625 -1.332031 C 2.765625 -1.101562 2.722656 -0.902344 2.636719 -0.734375 C 2.550781 -0.566406 2.441406 -0.429688 2.300781 -0.320312 C 2.164062 -0.214844 2.007812 -0.132812 1.832031 -0.078125 C 1.660156 -0.0273438 1.480469 0 1.296875 0 L 0.179688 0 L 0.179688 -0.136719 C 0.214844 -0.136719 0.261719 -0.136719 0.320312 -0.144531 C 0.378906 -0.152344 0.417969 -0.160156 0.4375 -0.167969 C 0.476562 -0.183594 0.503906 -0.210938 0.519531 -0.242188 C 0.539062 -0.273438 0.546875 -0.3125 0.546875 -0.359375 L 0.546875 -2.304688 C 0.546875 -2.347656 0.539062 -2.386719 0.523438 -2.417969 C 0.511719 -2.453125 0.480469 -2.480469 0.4375 -2.5 C 0.398438 -2.519531 0.355469 -2.535156 0.3125 -2.542969 C 0.265625 -2.550781 0.226562 -2.558594 0.195312 -2.558594 L 0.195312 -2.695312 L 1.371094 -2.695312 C 1.53125 -2.695312 1.691406 -2.667969 1.851562 -2.621094 C 2.007812 -2.570312 2.144531 -2.503906 2.261719 -2.417969 C 2.417969 -2.304688 2.542969 -2.15625 2.632812 -1.976562 C 2.722656 -1.792969 2.765625 -1.578125 2.765625 -1.332031 M 2.300781 -1.332031 C 2.300781 -1.511719 2.277344 -1.675781 2.230469 -1.824219 C 2.179688 -1.96875 2.109375 -2.097656 2.019531 -2.207031 C 1.929688 -2.308594 1.824219 -2.390625 1.695312 -2.449219 C 1.570312 -2.507812 1.429688 -2.539062 1.273438 -2.539062 C 1.21875 -2.539062 1.160156 -2.539062 1.097656 -2.535156 C 1.03125 -2.535156 0.984375 -2.53125 0.953125 -2.53125 L 0.953125 -0.460938 C 0.953125 -0.347656 0.984375 -0.265625 1.050781 -0.222656 C 1.121094 -0.179688 1.222656 -0.15625 1.363281 -0.15625 C 1.523438 -0.15625 1.664062 -0.183594 1.785156 -0.242188 C 1.902344 -0.296875 2 -0.378906 2.074219 -0.476562 C 2.152344 -0.585938 2.210938 -0.707031 2.246094 -0.847656 C 2.285156 -0.988281 2.300781 -1.148438 2.300781 -1.332031 Z "/>
</g>
<g id="glyph-1-1">
<path d="M 3.429688 0 L 2.238281 0 L 2.238281 -0.136719 C 2.28125 -0.136719 2.335938 -0.140625 2.40625 -0.148438 C 2.472656 -0.15625 2.519531 -0.167969 2.542969 -0.179688 C 2.585938 -0.203125 2.613281 -0.230469 2.632812 -0.261719 C 2.648438 -0.292969 2.660156 -0.332031 2.660156 -0.378906 L 2.660156 -2.339844 L 2.628906 -2.339844 L 1.710938 -0.0429688 L 1.617188 -0.0429688 L 0.742188 -2.386719 L 0.714844 -2.386719 L 0.714844 -0.777344 C 0.714844 -0.621094 0.726562 -0.503906 0.746094 -0.421875 C 0.765625 -0.34375 0.796875 -0.285156 0.835938 -0.25 C 0.863281 -0.222656 0.921875 -0.195312 1.007812 -0.171875 C 1.097656 -0.148438 1.152344 -0.136719 1.179688 -0.136719 L 1.179688 0 L 0.0898438 0 L 0.0898438 -0.136719 C 0.148438 -0.140625 0.207031 -0.148438 0.269531 -0.164062 C 0.332031 -0.175781 0.382812 -0.199219 0.414062 -0.226562 C 0.460938 -0.261719 0.492188 -0.316406 0.507812 -0.390625 C 0.523438 -0.460938 0.53125 -0.585938 0.53125 -0.757812 L 0.53125 -2.136719 C 0.53125 -2.214844 0.523438 -2.28125 0.503906 -2.332031 C 0.484375 -2.382812 0.457031 -2.425781 0.421875 -2.457031 C 0.382812 -2.488281 0.335938 -2.515625 0.277344 -2.53125 C 0.21875 -2.546875 0.164062 -2.558594 0.109375 -2.558594 L 0.109375 -2.695312 L 1.027344 -2.695312 L 1.800781 -0.671875 L 2.457031 -2.363281 C 2.480469 -2.425781 2.503906 -2.492188 2.519531 -2.558594 C 2.535156 -2.625 2.546875 -2.671875 2.546875 -2.695312 L 3.425781 -2.695312 L 3.425781 -2.558594 C 3.390625 -2.558594 3.34375 -2.554688 3.289062 -2.542969 C 3.234375 -2.53125 3.195312 -2.523438 3.167969 -2.515625 C 3.125 -2.5 3.097656 -2.472656 3.082031 -2.4375 C 3.066406 -2.402344 3.058594 -2.363281 3.058594 -2.324219 L 3.058594 -0.378906 C 3.058594 -0.335938 3.066406 -0.296875 3.082031 -0.269531 C 3.097656 -0.238281 3.125 -0.210938 3.167969 -0.1875 C 3.191406 -0.175781 3.234375 -0.164062 3.292969 -0.152344 C 3.347656 -0.140625 3.394531 -0.136719 3.429688 -0.136719 Z "/>
</g>
</g>
</defs>
<g fill="rgb(53.333333%, 53.333333%, 53.333333%)" fill-opacity="1">
<use xlink:href="#glyph-0-0" x="30" y="23.56543"/>
<use xlink:href="#glyph-0-1" x="33" y="23.56543"/>
<use xlink:href="#glyph-0-2" x="37" y="23.56543"/>
<use xlink:href="#glyph-0-3" x="39" y="23.56543"/>
</g>
<g fill="rgb(53.333333%, 53.333333%, 53.333333%)" fill-opacity="1">
<use xlink:href="#glyph-1-0" x="30" y="27.358398"/>
<use xlink:href="#glyph-1-1" x="33" y="27.358398"/>
</g>
</svg>
