<?xml version="1.0" encoding="UTF-8"?>
<svg xmlns="http://www.w3.org/2000/svg" xmlns:xlink="http://www.w3.org/1999/xlink" width="1920" height="1080" viewBox="0 0 1920 1080">
<defs>
<g>
<g id="glyph-0-0">
<path d="M 3.191406 -1.226562 C 3.15625 -1.222656 3.109375 -1.21875 3.050781 -1.207031 C 2.992188 -1.199219 2.945312 -1.183594 2.910156 -1.167969 C 2.867188 -1.144531 2.835938 -1.113281 2.816406 -1.074219 C 2.800781 -1.035156 2.789062 -0.988281 2.789062 -0.933594 L 2.789062 -0.695312 C 2.789062 -0.523438 2.792969 -0.40625 2.792969 -0.34375 C 2.796875 -0.285156 2.796875 -0.234375 2.800781 -0.195312 C 2.609375 -0.109375 2.417969 -0.0429688 2.226562 0.00390625 C 2.035156 0.0507812 1.847656 0.0742188 1.664062 0.0742188 C 1.46875 0.0742188 1.277344 0.0351562 1.097656 -0.0351562 C 0.914062 -0.109375 0.753906 -0.214844 0.617188 -0.351562 C 0.480469 -0.488281 0.371094 -0.65625 0.289062 -0.851562 C 0.210938 -1.050781 0.167969 -1.269531 0.167969 -1.511719 C 0.167969 -1.746094 0.207031 -1.964844 0.285156 -2.164062 C 0.363281 -2.367188 0.472656 -2.539062 0.613281 -2.6875 C 0.75 -2.832031 0.914062 -2.945312 1.105469 -3.027344 C 1.296875 -3.105469 1.5 -3.144531 1.714844 -3.144531 C 1.890625 -3.144531 2.042969 -3.125 2.171875 -3.082031 C 2.296875 -3.042969 2.414062 -2.992188 2.511719 -2.929688 L 2.597656 -3.078125 L 2.773438 -3.078125 L 2.792969 -2.003906 L 2.613281 -2.003906 C 2.585938 -2.121094 2.546875 -2.238281 2.5 -2.351562 C 2.457031 -2.46875 2.398438 -2.570312 2.328125 -2.664062 C 2.257812 -2.753906 2.171875 -2.828125 2.070312 -2.878906 C 1.964844 -2.933594 1.84375 -2.960938 1.703125 -2.960938 C 1.546875 -2.960938 1.410156 -2.929688 1.289062 -2.867188 C 1.164062 -2.804688 1.058594 -2.710938 0.96875 -2.585938 C 0.882812 -2.464844 0.8125 -2.316406 0.765625 -2.136719 C 0.71875 -1.957031 0.695312 -1.757812 0.695312 -1.535156 C 0.695312 -1.339844 0.71875 -1.15625 0.765625 -0.984375 C 0.8125 -0.808594 0.878906 -0.660156 0.96875 -0.535156 C 1.058594 -0.40625 1.171875 -0.304688 1.308594 -0.230469 C 1.441406 -0.15625 1.59375 -0.121094 1.765625 -0.121094 C 1.894531 -0.121094 2.007812 -0.140625 2.113281 -0.179688 C 2.21875 -0.21875 2.292969 -0.257812 2.335938 -0.300781 C 2.347656 -0.375 2.355469 -0.453125 2.355469 -0.53125 C 2.355469 -0.605469 2.355469 -0.671875 2.355469 -0.726562 L 2.355469 -0.894531 C 2.355469 -0.953125 2.347656 -1.007812 2.332031 -1.054688 C 2.316406 -1.101562 2.28125 -1.136719 2.226562 -1.160156 C 2.179688 -1.179688 2.117188 -1.195312 2.035156 -1.207031 C 1.953125 -1.21875 1.886719 -1.226562 1.84375 -1.226562 L 1.84375 -1.386719 L 3.191406 -1.386719 Z "/>
</g>
<g id="glyph-0-1">
<path d="M 1.519531 0.710938 C 1.125 0.664062 0.816406 0.464844 0.589844 0.113281 C 0.367188 -0.234375 0.253906 -0.703125 0.253906 -1.292969 C 0.253906 -1.894531 0.367188 -2.371094 0.589844 -2.71875 C 0.816406 -3.070312 1.125 -3.273438 1.519531 -3.324219 L 1.519531 -3.144531 C 1.242188 -3.09375 1.03125 -2.917969 0.886719 -2.613281 C 0.742188 -2.308594 0.671875 -1.867188 0.671875 -1.289062 C 0.671875 -0.738281 0.742188 -0.308594 0.882812 -0.00390625 C 1.023438 0.300781 1.238281 0.480469 1.519531 0.535156 Z "/>
</g>
<g id="glyph-0-2">
<path d="M 1.75 -3.097656 C 1.75 -3.035156 1.730469 -2.980469 1.695312 -2.933594 C 1.664062 -2.890625 1.609375 -2.867188 1.539062 -2.867188 C 1.492188 -2.867188 1.453125 -2.875 1.421875 -2.894531 C 1.386719 -2.914062 1.355469 -2.9375 1.324219 -2.96875 C 1.296875 -3.003906 1.269531 -3.039062 1.246094 -3.078125 C 1.222656 -3.121094 1.199219 -3.152344 1.183594 -3.175781 C 1.085938 -3.171875 1.011719 -3.105469 0.957031 -2.972656 C 0.90625 -2.84375 0.878906 -2.636719 0.878906 -2.347656 L 0.878906 -2.132812 L 1.429688 -2.132812 L 1.429688 -1.921875 L 0.878906 -1.921875 L 0.878906 -0.386719 C 0.878906 -0.335938 0.886719 -0.292969 0.90625 -0.261719 C 0.925781 -0.230469 0.957031 -0.207031 1 -0.191406 C 1.035156 -0.179688 1.082031 -0.167969 1.140625 -0.160156 C 1.195312 -0.152344 1.246094 -0.144531 1.289062 -0.144531 L 1.289062 0 L 0.160156 0 L 0.160156 -0.144531 C 0.195312 -0.144531 0.226562 -0.148438 0.261719 -0.152344 C 0.300781 -0.15625 0.328125 -0.160156 0.355469 -0.167969 C 0.394531 -0.183594 0.425781 -0.203125 0.445312 -0.238281 C 0.464844 -0.269531 0.476562 -0.3125 0.476562 -0.363281 L 0.476562 -1.921875 L 0.0507812 -1.921875 L 0.0507812 -2.132812 L 0.476562 -2.132812 L 0.476562 -2.265625 C 0.476562 -2.59375 0.558594 -2.855469 0.726562 -3.058594 C 0.898438 -3.257812 1.105469 -3.359375 1.359375 -3.359375 C 1.488281 -3.359375 1.585938 -3.332031 1.652344 -3.28125 C 1.714844 -3.234375 1.75 -3.171875 1.75 -3.097656 Z "/>
</g>
<g id="glyph-0-3">
<path d="M 1.414062 -1.292969 C 1.414062 -0.703125 1.300781 -0.234375 1.074219 0.113281 C 0.851562 0.464844 0.539062 0.664062 0.144531 0.710938 L 0.144531 0.535156 C 0.429688 0.480469 0.640625 0.300781 0.785156 -0.00390625 C 0.925781 -0.308594 0.996094 -0.738281 0.996094 -1.289062 C 0.996094 -1.867188 0.921875 -2.308594 0.777344 -2.613281 C 0.632812 -2.917969 0.421875 -3.09375 0.144531 -3.144531 L 0.144531 -3.324219 C 0.539062 -3.273438 0.851562 -3.070312 1.074219 -2.71875 C 1.300781 -2.371094 1.414062 -1.894531 1.414062 -1.292969 Z "/>
</g>
</g>
</defs>
<g fill="rgb(53.333333%, 53.333333%, 53.333333%)" fill-opacity="1">
<use xlink:href="#glyph-0-0" x="30" y="24.074219"/>
<use xlink:href="#glyph-0-1" x="33" y="24.074219"/>
<use xlink:href="#glyph-0-2" x="35" y="24.074219"/>
<use xlink:href="#glyph-0-3" x="36" y="24.074219"/>
</g>
</svg>
