<?xml version="1.0" encoding="UTF-8"?>
<svg xmlns="http://www.w3.org/2000/svg" xmlns:xlink="http://www.w3.org/1999/xlink" width="1920" height="1080" viewBox="0 0 1920 1080">
<defs>
<g>
<g id="glyph-0-0">
<path d="M 2.066406 -0.875 L 1.273438 -0.875 L 1.273438 -0.0820312 L 1.050781 -0.0820312 L 1.050781 -0.875 L 0.253906 -0.875 L 0.253906 -1.097656 L 1.050781 -1.097656 L 1.050781 -1.890625 L 1.273438 -1.890625 L 1.273438 -1.097656 L 2.066406 -1.097656 Z "/>
</g>
<g id="glyph-0-1">
<path d="M 1.847656 0 L 0.195312 0 L 0.195312 -0.242188 C 0.226562 -0.277344 0.269531 -0.316406 0.324219 -0.363281 C 0.382812 -0.410156 0.449219 -0.457031 0.527344 -0.511719 C 0.574219 -0.542969 0.628906 -0.578125 0.695312 -0.613281 C 0.761719 -0.652344 0.835938 -0.691406 0.921875 -0.738281 C 1.011719 -0.789062 1.085938 -0.832031 1.132812 -0.867188 C 1.183594 -0.90625 1.230469 -0.953125 1.269531 -1.007812 C 1.296875 -1.042969 1.320312 -1.089844 1.335938 -1.144531 C 1.351562 -1.199219 1.359375 -1.277344 1.359375 -1.378906 C 1.359375 -1.523438 1.320312 -1.632812 1.242188 -1.699219 C 1.164062 -1.769531 1.0625 -1.804688 0.941406 -1.804688 C 0.863281 -1.804688 0.789062 -1.789062 0.722656 -1.757812 C 0.65625 -1.730469 0.605469 -1.6875 0.570312 -1.632812 C 0.578125 -1.597656 0.589844 -1.550781 0.601562 -1.5 C 0.613281 -1.449219 0.617188 -1.398438 0.617188 -1.347656 C 0.617188 -1.304688 0.601562 -1.265625 0.5625 -1.230469 C 0.527344 -1.195312 0.472656 -1.175781 0.398438 -1.175781 C 0.339844 -1.175781 0.292969 -1.199219 0.261719 -1.238281 C 0.230469 -1.277344 0.214844 -1.332031 0.214844 -1.402344 C 0.214844 -1.464844 0.234375 -1.527344 0.269531 -1.59375 C 0.304688 -1.65625 0.355469 -1.714844 0.417969 -1.769531 C 0.484375 -1.824219 0.5625 -1.867188 0.660156 -1.898438 C 0.753906 -1.933594 0.855469 -1.949219 0.96875 -1.949219 C 1.207031 -1.949219 1.398438 -1.894531 1.542969 -1.785156 C 1.683594 -1.679688 1.753906 -1.535156 1.753906 -1.355469 C 1.753906 -1.269531 1.742188 -1.191406 1.714844 -1.121094 C 1.691406 -1.050781 1.648438 -0.988281 1.59375 -0.933594 C 1.53125 -0.875 1.457031 -0.824219 1.375 -0.78125 C 1.292969 -0.738281 1.164062 -0.679688 0.992188 -0.601562 C 0.890625 -0.558594 0.796875 -0.507812 0.707031 -0.460938 C 0.617188 -0.410156 0.546875 -0.359375 0.488281 -0.3125 L 1.847656 -0.3125 Z "/>
</g>
<g id="glyph-0-2">
<path d="M 0.730469 -0.203125 C 0.730469 -0.136719 0.707031 -0.0820312 0.660156 -0.0351562 C 0.613281 0.0117188 0.554688 0.0351562 0.488281 0.0351562 C 0.425781 0.0351562 0.367188 0.0117188 0.320312 -0.0351562 C 0.273438 -0.0820312 0.25 -0.136719 0.25 -0.203125 C 0.25 -0.269531 0.273438 -0.324219 0.320312 -0.371094 C 0.367188 -0.421875 0.425781 -0.445312 0.488281 -0.445312 C 0.554688 -0.445312 0.613281 -0.421875 0.660156 -0.371094 C 0.707031 -0.324219 0.730469 -0.269531 0.730469 -0.203125 Z "/>
</g>
<g id="glyph-0-3">
<path d="M 1.390625 -1.910156 C 1.390625 -1.703125 1.332031 -1.542969 1.222656 -1.429688 C 1.109375 -1.3125 0.964844 -1.257812 0.789062 -1.257812 C 0.613281 -1.257812 0.46875 -1.3125 0.359375 -1.429688 C 0.246094 -1.542969 0.191406 -1.703125 0.191406 -1.910156 C 0.191406 -2.105469 0.246094 -2.261719 0.355469 -2.382812 C 0.464844 -2.5 0.609375 -2.5625 0.792969 -2.5625 C 0.972656 -2.5625 1.117188 -2.5 1.226562 -2.382812 C 1.335938 -2.261719 1.390625 -2.105469 1.390625 -1.910156 M 1.089844 -1.910156 C 1.089844 -2.0625 1.066406 -2.1875 1.015625 -2.285156 C 0.964844 -2.382812 0.890625 -2.433594 0.792969 -2.433594 C 0.691406 -2.433594 0.613281 -2.382812 0.566406 -2.285156 C 0.515625 -2.1875 0.488281 -2.0625 0.488281 -1.910156 C 0.488281 -1.753906 0.515625 -1.625 0.566406 -1.53125 C 0.617188 -1.433594 0.691406 -1.386719 0.789062 -1.386719 C 0.886719 -1.386719 0.964844 -1.433594 1.015625 -1.53125 C 1.066406 -1.625 1.089844 -1.753906 1.089844 -1.910156 M 2.757812 -0.597656 C 2.757812 -0.390625 2.703125 -0.230469 2.589844 -0.113281 C 2.480469 0 2.335938 0.0546875 2.160156 0.0546875 C 1.984375 0.0546875 1.839844 0 1.730469 -0.113281 C 1.617188 -0.230469 1.5625 -0.390625 1.5625 -0.597656 C 1.5625 -0.789062 1.617188 -0.949219 1.726562 -1.070312 C 1.832031 -1.1875 1.980469 -1.25 2.160156 -1.25 C 2.339844 -1.25 2.484375 -1.1875 2.59375 -1.070312 C 2.703125 -0.949219 2.757812 -0.789062 2.757812 -0.597656 M 2.460938 -0.597656 C 2.460938 -0.75 2.4375 -0.875 2.386719 -0.972656 C 2.335938 -1.070312 2.261719 -1.121094 2.160156 -1.121094 C 2.058594 -1.121094 1.984375 -1.070312 1.933594 -0.972656 C 1.886719 -0.875 1.859375 -0.75 1.859375 -0.597656 C 1.859375 -0.4375 1.886719 -0.3125 1.9375 -0.214844 C 1.988281 -0.121094 2.0625 -0.0742188 2.160156 -0.0742188 C 2.257812 -0.0742188 2.332031 -0.121094 2.382812 -0.214844 C 2.4375 -0.3125 2.460938 -0.4375 2.460938 -0.597656 M 2.644531 -2.511719 L 0.5625 0 L 0.320312 0 L 2.394531 -2.511719 Z "/>
</g>
</g>
</defs>
<g fill="rgb(100%, 71.764706%, 0%)" fill-opacity="1">
<use xlink:href="#glyph-0-0" x="30" y="23.310547"/>
<use xlink:href="#glyph-0-1" x="32" y="23.310547"/>
<use xlink:href="#glyph-0-2" x="34" y="23.310547"/>
<use xlink:href="#glyph-0-1" x="35" y="23.310547"/>
<use xlink:href="#glyph-0-3" x="37" y="23.310547"/>
</g>
</svg>
