<?xml version="1.0" encoding="UTF-8"?>
<svg xmlns="http://www.w3.org/2000/svg" xmlns:xlink="http://www.w3.org/1999/xlink" width="1920" height="1080" viewBox="0 0 1920 1080">
<defs>
<g>
<g id="glyph-0-0">
<path d="M 4.042969 1.324219 L 1.953125 1.324219 L 1.953125 1.105469 C 2.007812 1.101562 2.074219 1.09375 2.152344 1.085938 C 2.230469 1.074219 2.292969 1.0625 2.335938 1.046875 C 2.398438 1.027344 2.441406 0.992188 2.46875 0.941406 C 2.492188 0.886719 2.507812 0.828125 2.507812 0.753906 L 2.507812 -0.285156 L 2.484375 -0.292969 C 2.449219 -0.261719 2.40625 -0.222656 2.351562 -0.175781 C 2.296875 -0.128906 2.230469 -0.0898438 2.152344 -0.0546875 C 2.066406 -0.0117188 1.984375 0.0195312 1.90625 0.0429688 C 1.828125 0.0664062 1.722656 0.078125 1.59375 0.078125 C 1.179688 0.078125 0.847656 -0.0664062 0.59375 -0.351562 C 0.339844 -0.636719 0.210938 -1.023438 0.210938 -1.511719 C 0.210938 -1.949219 0.363281 -2.3125 0.667969 -2.605469 C 0.972656 -2.894531 1.355469 -3.039062 1.820312 -3.039062 C 2.058594 -3.039062 2.269531 -3.015625 2.457031 -2.960938 C 2.644531 -2.910156 2.820312 -2.839844 2.984375 -2.753906 L 3.375 -3.136719 L 3.539062 -3.097656 C 3.53125 -2.972656 3.523438 -2.808594 3.511719 -2.605469 C 3.496094 -2.40625 3.492188 -2.238281 3.492188 -2.105469 L 3.492188 0.703125 C 3.492188 0.777344 3.503906 0.839844 3.53125 0.894531 C 3.558594 0.945312 3.601562 0.984375 3.660156 1.011719 C 3.703125 1.03125 3.765625 1.050781 3.839844 1.066406 C 3.914062 1.085938 3.984375 1.097656 4.042969 1.105469 L 4.042969 1.324219 M 2.507812 -0.59375 L 2.507812 -2.28125 C 2.492188 -2.328125 2.472656 -2.382812 2.449219 -2.441406 C 2.421875 -2.5 2.386719 -2.554688 2.34375 -2.609375 C 2.300781 -2.65625 2.246094 -2.699219 2.179688 -2.730469 C 2.117188 -2.761719 2.039062 -2.777344 1.945312 -2.777344 C 1.75 -2.777344 1.589844 -2.660156 1.464844 -2.429688 C 1.34375 -2.195312 1.28125 -1.875 1.28125 -1.464844 C 1.28125 -1.296875 1.296875 -1.148438 1.320312 -1.023438 C 1.347656 -0.894531 1.386719 -0.78125 1.4375 -0.6875 C 1.496094 -0.582031 1.570312 -0.5 1.652344 -0.441406 C 1.734375 -0.382812 1.847656 -0.355469 1.984375 -0.355469 C 2.113281 -0.355469 2.214844 -0.375 2.296875 -0.417969 C 2.375 -0.460938 2.445312 -0.519531 2.507812 -0.59375 Z "/>
</g>
</g>
</defs>
<g fill="rgb(100%, 100%, 100%)" fill-opacity="1">
<use xlink:href="#glyph-0-0" x="30" y="25.603516"/>
</g>
</svg>
