<?xml version="1.0" encoding="UTF-8"?>
<svg xmlns="http://www.w3.org/2000/svg" xmlns:xlink="http://www.w3.org/1999/xlink" width="854" height="480" viewBox="0 0 854 480">
<defs>
<g>
<g id="glyph-0-0">
<path d="M 2.863281 -2.742188 C 2.828125 -2.742188 2.785156 -2.734375 2.734375 -2.71875 C 2.683594 -2.703125 2.644531 -2.6875 2.609375 -2.667969 C 2.5625 -2.640625 2.527344 -2.601562 2.5 -2.558594 C 2.472656 -2.511719 2.445312 -2.460938 2.417969 -2.398438 C 2.324219 -2.183594 2.191406 -1.847656 2.007812 -1.390625 C 1.828125 -0.933594 1.640625 -0.457031 1.445312 0.0351562 L 1.277344 0.0351562 C 1.082031 -0.488281 0.894531 -0.996094 0.710938 -1.480469 C 0.53125 -1.96875 0.40625 -2.296875 0.339844 -2.46875 C 0.324219 -2.511719 0.304688 -2.546875 0.277344 -2.578125 C 0.25 -2.609375 0.214844 -2.640625 0.167969 -2.667969 C 0.132812 -2.691406 0.0898438 -2.710938 0.046875 -2.722656 C 0.00390625 -2.734375 -0.0390625 -2.738281 -0.078125 -2.742188 L -0.078125 -2.886719 L 1.117188 -2.886719 L 1.117188 -2.742188 C 1.015625 -2.738281 0.929688 -2.726562 0.859375 -2.710938 C 0.789062 -2.695312 0.753906 -2.671875 0.753906 -2.632812 C 0.753906 -2.617188 0.757812 -2.601562 0.761719 -2.578125 C 0.769531 -2.558594 0.773438 -2.542969 0.777344 -2.53125 C 0.828125 -2.398438 0.910156 -2.179688 1.023438 -1.878906 C 1.132812 -1.578125 1.292969 -1.152344 1.5 -0.597656 C 1.605469 -0.847656 1.722656 -1.144531 1.859375 -1.488281 C 1.992188 -1.828125 2.082031 -2.0625 2.128906 -2.191406 C 2.171875 -2.316406 2.199219 -2.398438 2.207031 -2.449219 C 2.214844 -2.496094 2.21875 -2.535156 2.21875 -2.5625 C 2.21875 -2.59375 2.203125 -2.621094 2.175781 -2.640625 C 2.148438 -2.664062 2.113281 -2.679688 2.066406 -2.695312 C 2.019531 -2.710938 1.976562 -2.71875 1.929688 -2.726562 C 1.882812 -2.734375 1.835938 -2.738281 1.789062 -2.742188 L 1.789062 -2.886719 L 2.863281 -2.886719 Z "/>
</g>
<g id="glyph-0-1">
<path d="M 2.046875 -0.0351562 C 1.984375 -0.0117188 1.925781 0.00390625 1.878906 0.0195312 C 1.832031 0.0351562 1.777344 0.0390625 1.714844 0.0390625 C 1.609375 0.0390625 1.523438 0.015625 1.460938 -0.0351562 C 1.398438 -0.0820312 1.359375 -0.15625 1.339844 -0.25 L 1.328125 -0.25 C 1.242188 -0.152344 1.144531 -0.078125 1.042969 -0.0273438 C 0.945312 0.0234375 0.820312 0.0507812 0.679688 0.0507812 C 0.527344 0.0507812 0.40625 0.00390625 0.308594 -0.0859375 C 0.210938 -0.179688 0.164062 -0.300781 0.164062 -0.449219 C 0.164062 -0.527344 0.171875 -0.597656 0.195312 -0.65625 C 0.21875 -0.71875 0.25 -0.773438 0.292969 -0.820312 C 0.328125 -0.863281 0.371094 -0.898438 0.425781 -0.929688 C 0.484375 -0.960938 0.535156 -0.988281 0.582031 -1.007812 C 0.644531 -1.03125 0.769531 -1.074219 0.957031 -1.136719 C 1.140625 -1.199219 1.265625 -1.246094 1.332031 -1.28125 L 1.332031 -1.484375 C 1.332031 -1.5 1.328125 -1.535156 1.320312 -1.585938 C 1.3125 -1.636719 1.296875 -1.683594 1.273438 -1.726562 C 1.246094 -1.777344 1.207031 -1.820312 1.160156 -1.859375 C 1.109375 -1.894531 1.039062 -1.914062 0.949219 -1.914062 C 0.886719 -1.914062 0.828125 -1.902344 0.773438 -1.882812 C 0.71875 -1.863281 0.683594 -1.839844 0.660156 -1.816406 C 0.660156 -1.789062 0.667969 -1.75 0.679688 -1.695312 C 0.695312 -1.644531 0.699219 -1.59375 0.699219 -1.550781 C 0.699219 -1.503906 0.679688 -1.460938 0.636719 -1.421875 C 0.59375 -1.378906 0.535156 -1.359375 0.457031 -1.359375 C 0.390625 -1.359375 0.339844 -1.386719 0.308594 -1.433594 C 0.277344 -1.480469 0.261719 -1.535156 0.261719 -1.59375 C 0.261719 -1.65625 0.28125 -1.71875 0.328125 -1.773438 C 0.371094 -1.832031 0.429688 -1.882812 0.5 -1.925781 C 0.558594 -1.964844 0.632812 -1.996094 0.71875 -2.023438 C 0.808594 -2.050781 0.890625 -2.0625 0.972656 -2.0625 C 1.089844 -2.0625 1.1875 -2.054688 1.273438 -2.039062 C 1.355469 -2.023438 1.433594 -1.992188 1.503906 -1.9375 C 1.574219 -1.890625 1.625 -1.820312 1.660156 -1.734375 C 1.695312 -1.648438 1.714844 -1.539062 1.714844 -1.402344 C 1.714844 -1.207031 1.714844 -1.035156 1.707031 -0.886719 C 1.703125 -0.734375 1.703125 -0.574219 1.703125 -0.394531 C 1.703125 -0.339844 1.710938 -0.300781 1.730469 -0.269531 C 1.75 -0.238281 1.777344 -0.210938 1.816406 -0.1875 C 1.835938 -0.175781 1.867188 -0.171875 1.910156 -0.167969 C 1.957031 -0.167969 2 -0.167969 2.046875 -0.167969 L 2.046875 -0.0351562 M 1.335938 -1.109375 C 1.222656 -1.078125 1.121094 -1.042969 1.035156 -1.011719 C 0.945312 -0.976562 0.867188 -0.9375 0.792969 -0.886719 C 0.722656 -0.84375 0.671875 -0.789062 0.628906 -0.722656 C 0.589844 -0.660156 0.570312 -0.585938 0.570312 -0.5 C 0.570312 -0.386719 0.601562 -0.304688 0.660156 -0.25 C 0.71875 -0.199219 0.792969 -0.171875 0.886719 -0.171875 C 0.980469 -0.171875 1.066406 -0.195312 1.140625 -0.242188 C 1.210938 -0.289062 1.273438 -0.34375 1.324219 -0.40625 Z "/>
</g>
<g id="glyph-0-2">
<path d="M 3.011719 0 L 2.234375 0 C 2.0625 -0.269531 1.90625 -0.503906 1.765625 -0.699219 C 1.628906 -0.898438 1.476562 -1.097656 1.316406 -1.308594 L 1.019531 -1.308594 L 1.019531 -0.394531 C 1.019531 -0.34375 1.027344 -0.304688 1.042969 -0.265625 C 1.054688 -0.230469 1.089844 -0.203125 1.136719 -0.183594 C 1.160156 -0.175781 1.203125 -0.167969 1.265625 -0.160156 C 1.328125 -0.152344 1.378906 -0.144531 1.421875 -0.144531 L 1.421875 0 L 0.199219 0 L 0.199219 -0.144531 C 0.230469 -0.148438 0.277344 -0.152344 0.339844 -0.160156 C 0.402344 -0.164062 0.445312 -0.175781 0.46875 -0.183594 C 0.511719 -0.203125 0.539062 -0.230469 0.558594 -0.261719 C 0.578125 -0.296875 0.585938 -0.339844 0.585938 -0.394531 L 0.585938 -2.480469 C 0.585938 -2.527344 0.578125 -2.570312 0.566406 -2.605469 C 0.550781 -2.644531 0.519531 -2.671875 0.46875 -2.691406 C 0.4375 -2.703125 0.390625 -2.714844 0.335938 -2.722656 C 0.285156 -2.734375 0.238281 -2.738281 0.199219 -2.742188 L 0.199219 -2.886719 L 1.53125 -2.886719 C 1.652344 -2.886719 1.769531 -2.875 1.875 -2.847656 C 1.984375 -2.824219 2.078125 -2.785156 2.167969 -2.726562 C 2.25 -2.675781 2.316406 -2.601562 2.367188 -2.515625 C 2.417969 -2.429688 2.445312 -2.324219 2.445312 -2.199219 C 2.445312 -2.089844 2.425781 -1.988281 2.390625 -1.902344 C 2.359375 -1.820312 2.308594 -1.746094 2.242188 -1.683594 C 2.179688 -1.625 2.109375 -1.574219 2.023438 -1.53125 C 1.9375 -1.488281 1.84375 -1.453125 1.738281 -1.421875 C 1.882812 -1.234375 2 -1.074219 2.09375 -0.945312 C 2.1875 -0.816406 2.304688 -0.660156 2.441406 -0.476562 C 2.5 -0.394531 2.554688 -0.335938 2.601562 -0.296875 C 2.652344 -0.257812 2.699219 -0.226562 2.746094 -0.203125 C 2.78125 -0.183594 2.824219 -0.171875 2.878906 -0.160156 C 2.933594 -0.152344 2.976562 -0.144531 3.011719 -0.144531 L 3.011719 0 M 1.941406 -2.152344 C 1.941406 -2.324219 1.890625 -2.464844 1.789062 -2.566406 C 1.691406 -2.667969 1.546875 -2.71875 1.363281 -2.71875 L 1.019531 -2.71875 L 1.019531 -1.484375 L 1.285156 -1.484375 C 1.472656 -1.484375 1.628906 -1.542969 1.753906 -1.664062 C 1.878906 -1.78125 1.941406 -1.945312 1.941406 -2.152344 Z "/>
</g>
</g>
</defs>
<g fill="rgb(100%, 26.666667%, 26.666667%)" fill-opacity="1">
<use xlink:href="#glyph-0-0" x="30" y="23.820312"/>
<use xlink:href="#glyph-0-1" x="33" y="23.820312"/>
<use xlink:href="#glyph-0-2" x="35" y="23.820312"/>
</g>
</svg>
