<?xml version="1.0" encoding="UTF-8"?>
<svg xmlns="http://www.w3.org/2000/svg" xmlns:xlink="http://www.w3.org/1999/xlink" width="854" height="480" viewBox="0 0 854 480">
<defs>
<g>
<g id="glyph-0-0">
<path d="M 5.480469 -4.753906 C 5.414062 -4.75 5.3125 -4.734375 5.175781 -4.699219 C 5.039062 -4.664062 4.941406 -4.625 4.882812 -4.589844 C 4.800781 -4.53125 4.742188 -4.417969 4.714844 -4.25 C 4.683594 -4.082031 4.667969 -3.871094 4.667969 -3.613281 L 4.667969 0.0507812 L 4.363281 0.0507812 L 1.328125 -4.046875 L 1.328125 -1.464844 C 1.328125 -1.175781 1.347656 -0.953125 1.382812 -0.796875 C 1.421875 -0.640625 1.476562 -0.53125 1.550781 -0.464844 C 1.605469 -0.414062 1.71875 -0.367188 1.886719 -0.320312 C 2.054688 -0.277344 2.167969 -0.253906 2.222656 -0.25 L 2.222656 0 L 0.167969 0 L 0.167969 -0.25 C 0.234375 -0.253906 0.339844 -0.277344 0.488281 -0.320312 C 0.640625 -0.359375 0.734375 -0.398438 0.773438 -0.429688 C 0.855469 -0.496094 0.910156 -0.597656 0.941406 -0.730469 C 0.972656 -0.867188 0.988281 -1.097656 0.988281 -1.425781 L 0.988281 -3.890625 C 0.988281 -4 0.96875 -4.105469 0.929688 -4.214844 C 0.894531 -4.324219 0.84375 -4.40625 0.78125 -4.464844 C 0.695312 -4.542969 0.582031 -4.609375 0.433594 -4.664062 C 0.289062 -4.71875 0.175781 -4.75 0.0859375 -4.753906 L 0.0859375 -5.003906 L 1.515625 -5.003906 L 4.328125 -1.1875 L 4.328125 -3.570312 C 4.328125 -3.859375 4.308594 -4.085938 4.269531 -4.242188 C 4.234375 -4.398438 4.179688 -4.5 4.109375 -4.554688 C 4.042969 -4.597656 3.933594 -4.640625 3.785156 -4.683594 C 3.636719 -4.726562 3.523438 -4.75 3.445312 -4.753906 L 3.445312 -5.003906 L 5.480469 -5.003906 Z "/>
</g>
<g id="glyph-0-1">
<path d="M 3.34375 -0.816406 C 3.199219 -0.539062 3.003906 -0.320312 2.757812 -0.15625 C 2.511719 0.0078125 2.230469 0.0898438 1.914062 0.0898438 C 1.636719 0.0898438 1.390625 0.0429688 1.179688 -0.0546875 C 0.96875 -0.15625 0.796875 -0.289062 0.660156 -0.457031 C 0.523438 -0.628906 0.421875 -0.824219 0.355469 -1.050781 C 0.289062 -1.277344 0.253906 -1.515625 0.253906 -1.765625 C 0.253906 -1.992188 0.289062 -2.214844 0.363281 -2.433594 C 0.433594 -2.648438 0.539062 -2.84375 0.675781 -3.019531 C 0.8125 -3.1875 0.976562 -3.320312 1.175781 -3.421875 C 1.375 -3.523438 1.597656 -3.574219 1.84375 -3.574219 C 2.097656 -3.574219 2.316406 -3.535156 2.496094 -3.457031 C 2.679688 -3.375 2.824219 -3.265625 2.9375 -3.128906 C 3.046875 -2.996094 3.125 -2.839844 3.179688 -2.664062 C 3.230469 -2.484375 3.257812 -2.289062 3.257812 -2.082031 L 3.257812 -1.847656 L 0.957031 -1.847656 C 0.957031 -1.621094 0.976562 -1.410156 1.019531 -1.226562 C 1.066406 -1.039062 1.132812 -0.875 1.226562 -0.734375 C 1.320312 -0.597656 1.4375 -0.488281 1.585938 -0.410156 C 1.734375 -0.332031 1.910156 -0.292969 2.117188 -0.292969 C 2.324219 -0.292969 2.503906 -0.339844 2.65625 -0.441406 C 2.808594 -0.539062 2.957031 -0.714844 3.097656 -0.96875 L 3.34375 -0.816406 M 2.5625 -2.144531 C 2.5625 -2.277344 2.550781 -2.417969 2.53125 -2.566406 C 2.507812 -2.714844 2.472656 -2.839844 2.421875 -2.941406 C 2.367188 -3.050781 2.292969 -3.136719 2.199219 -3.207031 C 2.105469 -3.273438 1.984375 -3.308594 1.835938 -3.308594 C 1.589844 -3.308594 1.386719 -3.207031 1.222656 -3 C 1.058594 -2.796875 0.96875 -2.511719 0.957031 -2.144531 Z "/>
</g>
<g id="glyph-0-2">
<path d="M 3.605469 0 L 2.011719 0 L 2.011719 -0.234375 C 2.117188 -0.246094 2.207031 -0.257812 2.28125 -0.269531 C 2.355469 -0.28125 2.390625 -0.308594 2.390625 -0.359375 C 2.390625 -0.382812 2.378906 -0.414062 2.355469 -0.457031 C 2.332031 -0.503906 2.308594 -0.542969 2.285156 -0.582031 C 2.226562 -0.671875 2.148438 -0.796875 2.042969 -0.949219 C 1.941406 -1.105469 1.816406 -1.289062 1.667969 -1.503906 C 1.546875 -1.351562 1.433594 -1.203125 1.328125 -1.054688 C 1.226562 -0.910156 1.117188 -0.757812 1.003906 -0.597656 C 0.988281 -0.574219 0.96875 -0.542969 0.953125 -0.507812 C 0.933594 -0.472656 0.925781 -0.445312 0.925781 -0.421875 C 0.925781 -0.371094 0.960938 -0.328125 1.027344 -0.292969 C 1.09375 -0.261719 1.195312 -0.238281 1.328125 -0.226562 L 1.328125 0 L 0.0429688 0 L 0.0429688 -0.21875 C 0.203125 -0.265625 0.332031 -0.324219 0.429688 -0.390625 C 0.527344 -0.457031 0.617188 -0.539062 0.699219 -0.636719 C 0.769531 -0.734375 0.871094 -0.863281 1.003906 -1.027344 C 1.132812 -1.191406 1.304688 -1.417969 1.511719 -1.699219 C 1.390625 -1.871094 1.242188 -2.082031 1.070312 -2.328125 C 0.898438 -2.574219 0.753906 -2.78125 0.644531 -2.945312 C 0.582031 -3.035156 0.511719 -3.105469 0.433594 -3.160156 C 0.355469 -3.21875 0.242188 -3.246094 0.0976562 -3.246094 L 0.0976562 -3.476562 L 1.613281 -3.476562 L 1.613281 -3.246094 C 1.535156 -3.246094 1.460938 -3.238281 1.390625 -3.230469 C 1.316406 -3.222656 1.28125 -3.199219 1.28125 -3.167969 C 1.28125 -3.144531 1.289062 -3.121094 1.300781 -3.097656 C 1.316406 -3.070312 1.332031 -3.042969 1.355469 -3.011719 C 1.40625 -2.933594 1.488281 -2.808594 1.597656 -2.640625 C 1.707031 -2.476562 1.824219 -2.296875 1.949219 -2.113281 C 2.03125 -2.226562 2.128906 -2.355469 2.238281 -2.507812 C 2.347656 -2.65625 2.449219 -2.800781 2.539062 -2.9375 C 2.550781 -2.953125 2.558594 -2.976562 2.570312 -3 C 2.578125 -3.023438 2.582031 -3.046875 2.582031 -3.070312 C 2.582031 -3.121094 2.542969 -3.160156 2.460938 -3.191406 C 2.378906 -3.21875 2.300781 -3.238281 2.230469 -3.25 L 2.230469 -3.476562 L 3.511719 -3.476562 L 3.511719 -3.257812 C 3.332031 -3.210938 3.191406 -3.15625 3.089844 -3.089844 C 2.988281 -3.027344 2.902344 -2.953125 2.832031 -2.867188 C 2.753906 -2.769531 2.664062 -2.652344 2.554688 -2.511719 C 2.449219 -2.371094 2.296875 -2.171875 2.105469 -1.917969 C 2.320312 -1.617188 2.492188 -1.371094 2.628906 -1.179688 C 2.761719 -0.984375 2.898438 -0.785156 3.03125 -0.582031 C 3.101562 -0.476562 3.175781 -0.398438 3.261719 -0.335938 C 3.34375 -0.277344 3.457031 -0.242188 3.605469 -0.234375 Z "/>
</g>
<g id="glyph-0-3">
<path d="M 2.402344 -0.152344 C 2.25 -0.0898438 2.105469 -0.0351562 1.96875 0.0078125 C 1.832031 0.0507812 1.664062 0.0742188 1.46875 0.0742188 C 1.175781 0.0742188 0.96875 0 0.851562 -0.144531 C 0.734375 -0.292969 0.671875 -0.5 0.671875 -0.769531 L 0.671875 -3.125 L 0.046875 -3.125 L 0.046875 -3.464844 L 0.6875 -3.464844 L 0.6875 -4.546875 L 1.328125 -4.546875 L 1.328125 -3.464844 L 2.328125 -3.464844 L 2.328125 -3.125 L 1.335938 -3.125 L 1.335938 -1.179688 C 1.335938 -1.035156 1.34375 -0.914062 1.351562 -0.816406 C 1.363281 -0.71875 1.386719 -0.632812 1.429688 -0.5625 C 1.464844 -0.492188 1.523438 -0.441406 1.597656 -0.40625 C 1.671875 -0.371094 1.773438 -0.351562 1.902344 -0.351562 C 1.960938 -0.351562 2.046875 -0.359375 2.160156 -0.367188 C 2.273438 -0.378906 2.355469 -0.394531 2.402344 -0.410156 Z "/>
</g>
<g id="glyph-0-4">
</g>
<g id="glyph-0-5">
<path d="M 4.554688 -1.472656 L 4.457031 0 L 0.304688 0 L 0.304688 -0.25 C 0.375 -0.253906 0.46875 -0.265625 0.585938 -0.28125 C 0.703125 -0.296875 0.78125 -0.3125 0.816406 -0.328125 C 0.890625 -0.363281 0.941406 -0.410156 0.972656 -0.464844 C 1 -0.523438 1.015625 -0.59375 1.015625 -0.679688 L 1.015625 -4.277344 C 1.015625 -4.355469 1.003906 -4.425781 0.976562 -4.484375 C 0.949219 -4.542969 0.898438 -4.59375 0.816406 -4.628906 C 0.75 -4.660156 0.664062 -4.6875 0.558594 -4.710938 C 0.453125 -4.734375 0.367188 -4.75 0.304688 -4.753906 L 0.304688 -5.003906 L 4.175781 -5.003906 L 4.175781 -3.796875 L 3.910156 -3.796875 C 3.863281 -3.976562 3.761719 -4.167969 3.605469 -4.367188 C 3.449219 -4.570312 3.300781 -4.679688 3.160156 -4.699219 C 3.085938 -4.707031 3 -4.714844 2.898438 -4.71875 C 2.796875 -4.722656 2.683594 -4.726562 2.554688 -4.726562 L 1.765625 -4.726562 L 1.765625 -2.738281 L 2.332031 -2.738281 C 2.511719 -2.738281 2.644531 -2.753906 2.726562 -2.789062 C 2.8125 -2.820312 2.886719 -2.878906 2.949219 -2.957031 C 3 -3.027344 3.042969 -3.117188 3.082031 -3.230469 C 3.117188 -3.347656 3.140625 -3.453125 3.152344 -3.554688 L 3.417969 -3.554688 L 3.417969 -1.59375 L 3.152344 -1.59375 C 3.144531 -1.707031 3.117188 -1.828125 3.078125 -1.953125 C 3.035156 -2.078125 2.992188 -2.167969 2.949219 -2.226562 C 2.875 -2.316406 2.792969 -2.378906 2.699219 -2.40625 C 2.605469 -2.433594 2.484375 -2.449219 2.332031 -2.449219 L 1.765625 -2.449219 L 1.765625 -0.949219 C 1.765625 -0.796875 1.777344 -0.679688 1.796875 -0.59375 C 1.820312 -0.503906 1.859375 -0.4375 1.921875 -0.394531 C 1.984375 -0.351562 2.066406 -0.320312 2.171875 -0.308594 C 2.277344 -0.296875 2.429688 -0.289062 2.625 -0.289062 C 2.703125 -0.289062 2.804688 -0.289062 2.929688 -0.289062 C 3.058594 -0.289062 3.164062 -0.292969 3.25 -0.304688 C 3.339844 -0.3125 3.433594 -0.328125 3.527344 -0.355469 C 3.625 -0.378906 3.691406 -0.414062 3.730469 -0.453125 C 3.839844 -0.566406 3.953125 -0.738281 4.070312 -0.96875 C 4.191406 -1.199219 4.265625 -1.367188 4.300781 -1.472656 Z "/>
</g>
<g id="glyph-0-6">
<path d="M 4.175781 -3.769531 C 4.175781 -3.507812 4.125 -3.277344 4.023438 -3.078125 C 3.917969 -2.875 3.777344 -2.710938 3.597656 -2.578125 C 3.417969 -2.445312 3.222656 -2.351562 3.007812 -2.289062 C 2.792969 -2.226562 2.566406 -2.195312 2.328125 -2.195312 L 1.765625 -2.195312 L 1.765625 -0.679688 C 1.765625 -0.597656 1.78125 -0.527344 1.808594 -0.464844 C 1.835938 -0.402344 1.890625 -0.355469 1.976562 -0.320312 C 2.015625 -0.304688 2.09375 -0.289062 2.199219 -0.273438 C 2.304688 -0.261719 2.402344 -0.253906 2.492188 -0.25 L 2.492188 0 L 0.34375 0 L 0.34375 -0.25 C 0.402344 -0.253906 0.484375 -0.261719 0.589844 -0.273438 C 0.699219 -0.285156 0.773438 -0.300781 0.816406 -0.320312 C 0.886719 -0.351562 0.9375 -0.394531 0.96875 -0.453125 C 1 -0.515625 1.015625 -0.589844 1.015625 -0.679688 L 1.015625 -4.292969 C 1.015625 -4.375 1.003906 -4.449219 0.980469 -4.515625 C 0.957031 -4.578125 0.902344 -4.628906 0.816406 -4.664062 C 0.726562 -4.691406 0.636719 -4.714844 0.546875 -4.726562 C 0.460938 -4.742188 0.382812 -4.75 0.320312 -4.753906 L 0.320312 -5.003906 L 2.605469 -5.003906 C 3.070312 -5.003906 3.449219 -4.890625 3.738281 -4.667969 C 4.03125 -4.441406 4.175781 -4.144531 4.175781 -3.769531 M 3.101562 -2.917969 C 3.183594 -3.03125 3.234375 -3.144531 3.261719 -3.265625 C 3.289062 -3.386719 3.300781 -3.496094 3.300781 -3.59375 C 3.300781 -3.726562 3.285156 -3.863281 3.253906 -4.003906 C 3.222656 -4.140625 3.167969 -4.261719 3.089844 -4.367188 C 3.007812 -4.476562 2.898438 -4.5625 2.765625 -4.625 C 2.632812 -4.683594 2.464844 -4.714844 2.265625 -4.714844 L 1.765625 -4.714844 L 1.765625 -2.503906 L 2.125 -2.503906 C 2.378906 -2.503906 2.585938 -2.542969 2.746094 -2.621094 C 2.902344 -2.699219 3.023438 -2.800781 3.101562 -2.917969 Z "/>
</g>
<g id="glyph-0-7">
<path d="M 3.621094 -3.292969 C 3.773438 -3.113281 3.882812 -2.902344 3.957031 -2.65625 C 4.03125 -2.414062 4.070312 -2.160156 4.070312 -1.894531 C 4.070312 -1.574219 4.023438 -1.289062 3.933594 -1.035156 C 3.839844 -0.78125 3.714844 -0.574219 3.554688 -0.40625 C 3.390625 -0.234375 3.195312 -0.105469 2.96875 -0.0195312 C 2.742188 0.0703125 2.492188 0.113281 2.214844 0.113281 C 1.910156 0.113281 1.640625 0.0625 1.402344 -0.0390625 C 1.167969 -0.140625 0.972656 -0.277344 0.824219 -0.453125 C 0.671875 -0.636719 0.554688 -0.851562 0.476562 -1.097656 C 0.402344 -1.34375 0.363281 -1.609375 0.363281 -1.894531 C 0.363281 -2.171875 0.398438 -2.429688 0.472656 -2.667969 C 0.546875 -2.902344 0.664062 -3.113281 0.820312 -3.304688 C 0.972656 -3.488281 1.167969 -3.632812 1.402344 -3.738281 C 1.640625 -3.84375 1.914062 -3.898438 2.21875 -3.898438 C 2.539062 -3.898438 2.816406 -3.84375 3.046875 -3.734375 C 3.277344 -3.625 3.46875 -3.480469 3.621094 -3.292969 M 3.289062 -1.894531 C 3.289062 -2.453125 3.195312 -2.886719 3.003906 -3.195312 C 2.8125 -3.503906 2.550781 -3.65625 2.222656 -3.65625 C 1.886719 -3.65625 1.625 -3.503906 1.433594 -3.195312 C 1.238281 -2.886719 1.144531 -2.453125 1.144531 -1.894531 C 1.144531 -1.363281 1.234375 -0.933594 1.417969 -0.613281 C 1.605469 -0.289062 1.871094 -0.128906 2.214844 -0.128906 C 2.558594 -0.128906 2.824219 -0.289062 3.011719 -0.613281 C 3.199219 -0.933594 3.289062 -1.363281 3.289062 -1.894531 Z "/>
</g>
<g id="glyph-0-8">
<path d="M 2.972656 -1.652344 C 3.128906 -1.53125 3.257812 -1.375 3.359375 -1.179688 C 3.460938 -0.988281 3.511719 -0.746094 3.511719 -0.457031 C 3.511719 0.046875 3.339844 0.464844 2.996094 0.792969 C 2.648438 1.121094 2.210938 1.289062 1.679688 1.289062 C 1.265625 1.289062 0.917969 1.191406 0.636719 0.996094 C 0.351562 0.800781 0.207031 0.574219 0.207031 0.3125 C 0.207031 0.195312 0.238281 0.0898438 0.296875 0 C 0.355469 -0.0898438 0.445312 -0.132812 0.566406 -0.132812 C 0.707031 -0.132812 0.816406 -0.0976562 0.890625 -0.0234375 C 0.964844 0.0507812 1 0.132812 1 0.21875 C 1 0.292969 0.988281 0.386719 0.960938 0.5 C 0.9375 0.613281 0.917969 0.695312 0.902344 0.75 C 0.921875 0.769531 0.953125 0.789062 0.996094 0.816406 C 1.035156 0.847656 1.085938 0.875 1.144531 0.898438 C 1.207031 0.925781 1.28125 0.949219 1.371094 0.96875 C 1.457031 0.988281 1.5625 1 1.679688 1 C 1.828125 1 1.972656 0.96875 2.105469 0.90625 C 2.238281 0.84375 2.351562 0.753906 2.445312 0.636719 C 2.546875 0.503906 2.621094 0.351562 2.671875 0.183594 C 2.722656 0.015625 2.746094 -0.195312 2.746094 -0.453125 C 2.746094 -0.785156 2.65625 -1.0625 2.46875 -1.277344 C 2.285156 -1.496094 2.042969 -1.605469 1.742188 -1.605469 C 1.554688 -1.605469 1.378906 -1.570312 1.214844 -1.5 C 1.050781 -1.429688 0.90625 -1.3125 0.777344 -1.144531 L 0.539062 -1.238281 L 0.839844 -3.785156 L 3.363281 -3.785156 L 3.363281 -3.15625 L 1.125 -3.15625 L 0.941406 -1.660156 C 1.046875 -1.734375 1.1875 -1.8125 1.359375 -1.886719 C 1.53125 -1.960938 1.722656 -1.996094 1.929688 -1.996094 C 2.101562 -1.996094 2.277344 -1.96875 2.464844 -1.917969 C 2.648438 -1.863281 2.816406 -1.777344 2.972656 -1.652344 Z "/>
</g>
<g id="glyph-1-0">
<path d="M 4.683594 -2.425781 L 0.59375 -2.425781 L 0.59375 -2.765625 L 4.683594 -2.765625 L 4.203125 -3.414062 L 4.203125 -3.5 L 6.628906 -2.59375 L 4.203125 -1.691406 L 4.203125 -1.777344 Z "/>
</g>
</g>
</defs>
<g fill="rgb(53.333333%, 53.333333%, 53.333333%)" fill-opacity="1">
<use xlink:href="#glyph-0-0" x="30" y="26.623047"/>
<use xlink:href="#glyph-0-1" x="36" y="26.623047"/>
<use xlink:href="#glyph-0-2" x="39" y="26.623047"/>
<use xlink:href="#glyph-0-3" x="43" y="26.623047"/>
<use xlink:href="#glyph-0-4" x="45" y="26.623047"/>
</g>
<g fill="rgb(53.333333%, 53.333333%, 53.333333%)" fill-opacity="1">
<use xlink:href="#glyph-1-0" x="47" y="26.623047"/>
</g>
<g fill="rgb(53.333333%, 53.333333%, 53.333333%)" fill-opacity="1">
<use xlink:href="#glyph-0-4" x="54" y="26.623047"/>
<use xlink:href="#glyph-0-5" x="56" y="26.623047"/>
<use xlink:href="#glyph-0-6" x="61" y="26.623047"/>
<use xlink:href="#glyph-0-7" x="65" y="26.623047"/>
<use xlink:href="#glyph-0-8" x="69" y="26.623047"/>
</g>
</svg>
