<?xml version="1.0" encoding="UTF-8"?>
<svg xmlns="http://www.w3.org/2000/svg" xmlns:xlink="http://www.w3.org/1999/xlink" width="854" height="480" viewBox="0 0 854 480">
<defs>
<g>
<g id="glyph-0-0">
<path d="M 2.925781 -2.597656 L 2.742188 -2.597656 C 2.710938 -2.726562 2.640625 -2.863281 2.53125 -3.011719 C 2.421875 -3.15625 2.320312 -3.238281 2.21875 -3.25 C 2.167969 -3.257812 2.109375 -3.261719 2.039062 -3.265625 C 1.96875 -3.269531 1.890625 -3.273438 1.804688 -3.273438 L 1.222656 -3.273438 L 1.222656 -1.878906 L 1.621094 -1.878906 C 1.742188 -1.878906 1.835938 -1.890625 1.902344 -1.917969 C 1.96875 -1.941406 2.027344 -1.980469 2.074219 -2.035156 C 2.109375 -2.070312 2.136719 -2.125 2.164062 -2.199219 C 2.191406 -2.277344 2.207031 -2.359375 2.21875 -2.445312 L 2.398438 -2.445312 L 2.398438 -1.082031 L 2.21875 -1.082031 C 2.210938 -1.152344 2.195312 -1.234375 2.167969 -1.324219 C 2.136719 -1.417969 2.109375 -1.484375 2.074219 -1.523438 C 2.027344 -1.582031 1.964844 -1.625 1.890625 -1.648438 C 1.816406 -1.667969 1.726562 -1.679688 1.621094 -1.679688 L 1.222656 -1.679688 L 1.222656 -0.488281 C 1.222656 -0.433594 1.234375 -0.386719 1.253906 -0.34375 C 1.277344 -0.300781 1.3125 -0.265625 1.367188 -0.242188 C 1.390625 -0.230469 1.445312 -0.214844 1.527344 -0.199219 C 1.605469 -0.183594 1.667969 -0.175781 1.710938 -0.171875 L 1.710938 0 L 0.210938 0 L 0.210938 -0.171875 C 0.257812 -0.175781 0.324219 -0.183594 0.40625 -0.1875 C 0.488281 -0.195312 0.539062 -0.207031 0.5625 -0.21875 C 0.613281 -0.238281 0.648438 -0.269531 0.671875 -0.3125 C 0.691406 -0.351562 0.703125 -0.402344 0.703125 -0.460938 L 0.703125 -2.960938 C 0.703125 -3.015625 0.695312 -3.0625 0.675781 -3.105469 C 0.660156 -3.144531 0.621094 -3.179688 0.5625 -3.207031 C 0.519531 -3.226562 0.460938 -3.246094 0.386719 -3.261719 C 0.3125 -3.277344 0.253906 -3.289062 0.210938 -3.289062 L 0.210938 -3.464844 L 2.925781 -3.464844 Z "/>
</g>
<g id="glyph-0-1">
<path d="M 3.558594 -1.710938 C 3.558594 -1.417969 3.5 -1.160156 3.390625 -0.945312 C 3.28125 -0.726562 3.136719 -0.550781 2.960938 -0.414062 C 2.78125 -0.273438 2.578125 -0.171875 2.355469 -0.101562 C 2.132812 -0.0351562 1.902344 0 1.664062 0 L 0.230469 0 L 0.230469 -0.171875 C 0.277344 -0.171875 0.339844 -0.179688 0.414062 -0.1875 C 0.488281 -0.195312 0.539062 -0.207031 0.5625 -0.21875 C 0.613281 -0.238281 0.648438 -0.269531 0.671875 -0.3125 C 0.691406 -0.351562 0.703125 -0.402344 0.703125 -0.460938 L 0.703125 -2.960938 C 0.703125 -3.015625 0.695312 -3.066406 0.675781 -3.109375 C 0.65625 -3.15625 0.621094 -3.1875 0.5625 -3.214844 C 0.511719 -3.238281 0.460938 -3.257812 0.398438 -3.269531 C 0.34375 -3.28125 0.292969 -3.289062 0.25 -3.289062 L 0.25 -3.464844 L 1.761719 -3.464844 C 1.972656 -3.464844 2.175781 -3.433594 2.378906 -3.367188 C 2.578125 -3.304688 2.753906 -3.21875 2.90625 -3.109375 C 3.109375 -2.964844 3.269531 -2.773438 3.382812 -2.539062 C 3.5 -2.304688 3.558594 -2.027344 3.558594 -1.710938 M 2.960938 -1.710938 C 2.960938 -1.945312 2.929688 -2.15625 2.867188 -2.34375 C 2.804688 -2.53125 2.714844 -2.695312 2.59375 -2.835938 C 2.484375 -2.96875 2.34375 -3.074219 2.179688 -3.148438 C 2.019531 -3.226562 1.835938 -3.265625 1.636719 -3.265625 C 1.570312 -3.265625 1.492188 -3.261719 1.410156 -3.261719 C 1.324219 -3.257812 1.265625 -3.257812 1.222656 -3.253906 L 1.222656 -0.59375 C 1.222656 -0.445312 1.265625 -0.34375 1.351562 -0.285156 C 1.4375 -0.230469 1.570312 -0.199219 1.75 -0.199219 C 1.957031 -0.199219 2.136719 -0.238281 2.292969 -0.308594 C 2.445312 -0.382812 2.574219 -0.484375 2.667969 -0.613281 C 2.769531 -0.75 2.84375 -0.910156 2.890625 -1.089844 C 2.9375 -1.269531 2.960938 -1.476562 2.960938 -1.710938 Z "/>
</g>
<g id="glyph-0-2">
<path d="M 3.433594 -3.289062 C 3.394531 -3.289062 3.339844 -3.28125 3.28125 -3.261719 C 3.222656 -3.246094 3.171875 -3.226562 3.132812 -3.199219 C 3.078125 -3.167969 3.03125 -3.121094 3 -3.070312 C 2.964844 -3.015625 2.933594 -2.953125 2.898438 -2.878906 C 2.792969 -2.621094 2.628906 -2.214844 2.410156 -1.667969 C 2.191406 -1.121094 1.96875 -0.550781 1.734375 0.0429688 L 1.53125 0.0429688 C 1.296875 -0.585938 1.074219 -1.191406 0.855469 -1.777344 C 0.636719 -2.363281 0.488281 -2.757812 0.410156 -2.960938 C 0.390625 -3.011719 0.363281 -3.054688 0.332031 -3.09375 C 0.300781 -3.132812 0.257812 -3.167969 0.203125 -3.203125 C 0.160156 -3.230469 0.109375 -3.25 0.0546875 -3.265625 C 0.00390625 -3.277344 -0.046875 -3.289062 -0.09375 -3.289062 L -0.09375 -3.464844 L 1.339844 -3.464844 L 1.339844 -3.289062 C 1.21875 -3.285156 1.117188 -3.273438 1.03125 -3.253906 C 0.949219 -3.238281 0.90625 -3.203125 0.90625 -3.160156 C 0.90625 -3.140625 0.910156 -3.121094 0.914062 -3.09375 C 0.921875 -3.070312 0.929688 -3.050781 0.933594 -3.039062 C 0.992188 -2.878906 1.089844 -2.617188 1.226562 -2.257812 C 1.359375 -1.894531 1.554688 -1.382812 1.800781 -0.714844 C 1.925781 -1.015625 2.066406 -1.375 2.230469 -1.785156 C 2.390625 -2.195312 2.5 -2.476562 2.554688 -2.628906 C 2.609375 -2.777344 2.640625 -2.878906 2.648438 -2.9375 C 2.65625 -2.992188 2.660156 -3.039062 2.660156 -3.078125 C 2.660156 -3.113281 2.644531 -3.144531 2.613281 -3.171875 C 2.578125 -3.195312 2.535156 -3.21875 2.476562 -3.234375 C 2.425781 -3.25 2.371094 -3.261719 2.316406 -3.273438 C 2.257812 -3.28125 2.203125 -3.285156 2.144531 -3.289062 L 2.144531 -3.464844 L 3.433594 -3.464844 Z "/>
</g>
<g id="glyph-0-3">
</g>
<g id="glyph-0-4">
<path d="M 2.125 -3.71875 L 0.4375 1.035156 L 0.121094 1.035156 L 1.800781 -3.71875 Z "/>
</g>
<g id="glyph-0-5">
<path d="M 3.054688 -2.523438 L 2.886719 -2.523438 C 2.875 -2.582031 2.847656 -2.652344 2.808594 -2.734375 C 2.769531 -2.8125 2.726562 -2.890625 2.679688 -2.960938 C 2.632812 -3.035156 2.578125 -3.101562 2.519531 -3.15625 C 2.460938 -3.214844 2.40625 -3.246094 2.351562 -3.253906 C 2.300781 -3.261719 2.238281 -3.265625 2.160156 -3.269531 C 2.085938 -3.273438 2.015625 -3.273438 1.949219 -3.273438 L 1.804688 -3.273438 L 1.804688 -0.503906 C 1.804688 -0.449219 1.816406 -0.398438 1.839844 -0.355469 C 1.863281 -0.308594 1.902344 -0.277344 1.960938 -0.25 C 1.988281 -0.238281 2.050781 -0.226562 2.144531 -0.203125 C 2.238281 -0.1875 2.3125 -0.175781 2.363281 -0.171875 L 2.363281 0 L 0.726562 0 L 0.726562 -0.171875 C 0.773438 -0.175781 0.84375 -0.183594 0.9375 -0.191406 C 1.03125 -0.203125 1.09375 -0.214844 1.128906 -0.230469 C 1.183594 -0.25 1.222656 -0.28125 1.25 -0.320312 C 1.273438 -0.359375 1.285156 -0.414062 1.285156 -0.480469 L 1.285156 -3.273438 L 1.144531 -3.273438 C 1.09375 -3.273438 1.03125 -3.273438 0.957031 -3.269531 C 0.882812 -3.269531 0.8125 -3.261719 0.742188 -3.253906 C 0.6875 -3.246094 0.632812 -3.214844 0.574219 -3.15625 C 0.515625 -3.101562 0.464844 -3.035156 0.414062 -2.960938 C 0.367188 -2.886719 0.324219 -2.808594 0.285156 -2.726562 C 0.25 -2.644531 0.222656 -2.578125 0.207031 -2.523438 L 0.0351562 -2.523438 L 0.0351562 -3.464844 L 3.054688 -3.464844 Z "/>
</g>
<g id="glyph-0-6">
<path d="M 3.019531 -1.03125 L 2.945312 0 L 0.238281 0 L 0.238281 -0.171875 C 0.277344 -0.175781 0.335938 -0.183594 0.410156 -0.191406 C 0.484375 -0.199219 0.535156 -0.210938 0.5625 -0.222656 C 0.613281 -0.242188 0.648438 -0.273438 0.671875 -0.316406 C 0.691406 -0.355469 0.703125 -0.40625 0.703125 -0.472656 L 0.703125 -2.953125 C 0.703125 -3.007812 0.695312 -3.054688 0.675781 -3.097656 C 0.65625 -3.140625 0.621094 -3.175781 0.5625 -3.199219 C 0.527344 -3.21875 0.472656 -3.238281 0.40625 -3.257812 C 0.339844 -3.277344 0.28125 -3.289062 0.238281 -3.289062 L 0.238281 -3.464844 L 1.703125 -3.464844 L 1.703125 -3.289062 C 1.65625 -3.289062 1.597656 -3.28125 1.523438 -3.265625 C 1.453125 -3.25 1.398438 -3.238281 1.367188 -3.226562 C 1.3125 -3.207031 1.273438 -3.175781 1.253906 -3.128906 C 1.234375 -3.082031 1.222656 -3.03125 1.222656 -2.976562 L 1.222656 -0.648438 C 1.222656 -0.542969 1.226562 -0.457031 1.238281 -0.398438 C 1.25 -0.339844 1.273438 -0.292969 1.3125 -0.261719 C 1.351562 -0.230469 1.40625 -0.210938 1.480469 -0.203125 C 1.554688 -0.195312 1.660156 -0.191406 1.792969 -0.191406 C 1.851562 -0.191406 1.914062 -0.191406 1.980469 -0.195312 C 2.046875 -0.199219 2.105469 -0.203125 2.164062 -0.214844 C 2.222656 -0.226562 2.273438 -0.238281 2.324219 -0.253906 C 2.371094 -0.273438 2.40625 -0.292969 2.429688 -0.320312 C 2.496094 -0.394531 2.574219 -0.507812 2.664062 -0.660156 C 2.75 -0.8125 2.8125 -0.9375 2.847656 -1.03125 Z "/>
</g>
</g>
</defs>
<g fill="rgb(53.333333%, 53.333333%, 53.333333%)" fill-opacity="1">
<use xlink:href="#glyph-0-0" x="30" y="24.584961"/>
<use xlink:href="#glyph-0-1" x="33" y="24.584961"/>
<use xlink:href="#glyph-0-2" x="37" y="24.584961"/>
<use xlink:href="#glyph-0-3" x="40" y="24.584961"/>
<use xlink:href="#glyph-0-4" x="41" y="24.584961"/>
<use xlink:href="#glyph-0-3" x="43" y="24.584961"/>
<use xlink:href="#glyph-0-5" x="44" y="24.584961"/>
<use xlink:href="#glyph-0-2" x="47" y="24.584961"/>
<use xlink:href="#glyph-0-6" x="50" y="24.584961"/>
</g>
</svg>
