<?xml version="1.0" encoding="UTF-8"?>
<svg xmlns="http://www.w3.org/2000/svg" xmlns:xlink="http://www.w3.org/1999/xlink" width="854" height="480" viewBox="0 0 854 480">
<defs>
<g>
<g id="glyph-0-0">
<path d="M 3.8125 0 L 2.828125 0 C 2.609375 -0.34375 2.414062 -0.636719 2.238281 -0.886719 C 2.0625 -1.136719 1.871094 -1.390625 1.664062 -1.65625 L 1.289062 -1.65625 L 1.289062 -0.496094 C 1.289062 -0.4375 1.300781 -0.382812 1.320312 -0.339844 C 1.339844 -0.292969 1.378906 -0.257812 1.441406 -0.234375 C 1.472656 -0.222656 1.527344 -0.210938 1.601562 -0.199219 C 1.679688 -0.191406 1.746094 -0.183594 1.796875 -0.183594 L 1.796875 0 L 0.253906 0 L 0.253906 -0.183594 C 0.292969 -0.1875 0.351562 -0.191406 0.429688 -0.199219 C 0.511719 -0.210938 0.5625 -0.222656 0.59375 -0.234375 C 0.648438 -0.257812 0.683594 -0.289062 0.707031 -0.332031 C 0.730469 -0.375 0.742188 -0.429688 0.742188 -0.496094 L 0.742188 -3.140625 C 0.742188 -3.203125 0.734375 -3.253906 0.714844 -3.300781 C 0.699219 -3.347656 0.660156 -3.382812 0.59375 -3.40625 C 0.550781 -3.421875 0.496094 -3.4375 0.429688 -3.449219 C 0.359375 -3.460938 0.300781 -3.46875 0.253906 -3.472656 L 0.253906 -3.65625 L 1.941406 -3.65625 C 2.09375 -3.65625 2.238281 -3.640625 2.375 -3.609375 C 2.511719 -3.578125 2.632812 -3.527344 2.746094 -3.457031 C 2.851562 -3.386719 2.9375 -3.296875 3 -3.1875 C 3.0625 -3.074219 3.09375 -2.941406 3.09375 -2.785156 C 3.09375 -2.644531 3.074219 -2.519531 3.03125 -2.410156 C 2.988281 -2.304688 2.925781 -2.210938 2.839844 -2.132812 C 2.761719 -2.058594 2.667969 -1.992188 2.5625 -1.9375 C 2.453125 -1.886719 2.332031 -1.839844 2.203125 -1.800781 C 2.382812 -1.5625 2.535156 -1.363281 2.652344 -1.199219 C 2.773438 -1.035156 2.917969 -0.835938 3.09375 -0.601562 C 3.167969 -0.5 3.234375 -0.425781 3.296875 -0.375 C 3.359375 -0.324219 3.417969 -0.285156 3.480469 -0.253906 C 3.523438 -0.234375 3.578125 -0.214844 3.644531 -0.203125 C 3.714844 -0.191406 3.769531 -0.183594 3.8125 -0.183594 L 3.8125 0 M 2.457031 -2.726562 C 2.457031 -2.945312 2.394531 -3.121094 2.269531 -3.25 C 2.140625 -3.378906 1.960938 -3.445312 1.730469 -3.445312 L 1.289062 -3.445312 L 1.289062 -1.878906 L 1.628906 -1.878906 C 1.867188 -1.878906 2.0625 -1.953125 2.222656 -2.105469 C 2.378906 -2.257812 2.457031 -2.464844 2.457031 -2.726562 Z "/>
</g>
<g id="glyph-0-1">
<path d="M 2.441406 -0.597656 C 2.335938 -0.394531 2.195312 -0.234375 2.015625 -0.113281 C 1.835938 0.0078125 1.632812 0.0664062 1.398438 0.0664062 C 1.195312 0.0664062 1.015625 0.03125 0.863281 -0.0429688 C 0.707031 -0.113281 0.582031 -0.210938 0.480469 -0.335938 C 0.382812 -0.457031 0.308594 -0.601562 0.257812 -0.769531 C 0.210938 -0.933594 0.183594 -1.105469 0.183594 -1.289062 C 0.183594 -1.457031 0.210938 -1.617188 0.265625 -1.777344 C 0.316406 -1.9375 0.394531 -2.078125 0.496094 -2.207031 C 0.59375 -2.328125 0.714844 -2.425781 0.859375 -2.5 C 1.003906 -2.574219 1.167969 -2.613281 1.347656 -2.613281 C 1.535156 -2.613281 1.691406 -2.582031 1.824219 -2.523438 C 1.957031 -2.46875 2.0625 -2.386719 2.148438 -2.285156 C 2.226562 -2.1875 2.285156 -2.074219 2.324219 -1.945312 C 2.363281 -1.816406 2.382812 -1.671875 2.382812 -1.519531 L 2.382812 -1.351562 L 0.699219 -1.351562 C 0.699219 -1.183594 0.714844 -1.03125 0.746094 -0.894531 C 0.777344 -0.757812 0.828125 -0.640625 0.898438 -0.535156 C 0.964844 -0.4375 1.050781 -0.359375 1.160156 -0.300781 C 1.269531 -0.242188 1.398438 -0.214844 1.546875 -0.214844 C 1.699219 -0.214844 1.832031 -0.25 1.941406 -0.320312 C 2.050781 -0.394531 2.160156 -0.523438 2.261719 -0.707031 L 2.441406 -0.597656 M 1.875 -1.566406 C 1.875 -1.664062 1.863281 -1.765625 1.847656 -1.875 C 1.832031 -1.984375 1.804688 -2.078125 1.769531 -2.148438 C 1.730469 -2.230469 1.675781 -2.292969 1.609375 -2.34375 C 1.539062 -2.390625 1.449219 -2.417969 1.34375 -2.417969 C 1.164062 -2.417969 1.011719 -2.34375 0.894531 -2.191406 C 0.773438 -2.042969 0.707031 -1.832031 0.699219 -1.566406 Z "/>
</g>
<g id="glyph-0-2">
<path d="M 2.695312 -2.382812 C 2.617188 -2.371094 2.542969 -2.34375 2.476562 -2.300781 C 2.40625 -2.257812 2.347656 -2.183594 2.296875 -2.078125 C 2.195312 -1.847656 2.089844 -1.605469 1.980469 -1.355469 C 1.875 -1.105469 1.761719 -0.84375 1.644531 -0.570312 C 1.609375 -0.492188 1.574219 -0.398438 1.535156 -0.289062 C 1.496094 -0.179688 1.460938 -0.078125 1.425781 0.0234375 L 1.226562 0.0234375 C 1.0625 -0.378906 0.914062 -0.75 0.777344 -1.082031 C 0.636719 -1.414062 0.496094 -1.753906 0.347656 -2.101562 C 0.3125 -2.183594 0.257812 -2.242188 0.183594 -2.285156 C 0.105469 -2.332031 0.0273438 -2.359375 -0.0507812 -2.371094 L -0.0507812 -2.539062 L 1.125 -2.539062 L 1.125 -2.359375 C 1.074219 -2.359375 1.011719 -2.347656 0.933594 -2.328125 C 0.855469 -2.308594 0.816406 -2.28125 0.816406 -2.246094 C 0.816406 -2.242188 0.820312 -2.230469 0.832031 -2.207031 C 0.839844 -2.1875 0.847656 -2.160156 0.855469 -2.132812 C 0.925781 -1.957031 1.027344 -1.714844 1.15625 -1.398438 C 1.28125 -1.085938 1.386719 -0.832031 1.46875 -0.640625 C 1.53125 -0.789062 1.609375 -0.972656 1.699219 -1.191406 C 1.792969 -1.410156 1.894531 -1.65625 2.003906 -1.929688 C 2.019531 -1.972656 2.039062 -2.019531 2.054688 -2.058594 C 2.070312 -2.097656 2.074219 -2.140625 2.074219 -2.179688 C 2.074219 -2.210938 2.0625 -2.234375 2.035156 -2.257812 C 2.003906 -2.28125 1.972656 -2.300781 1.933594 -2.320312 C 1.890625 -2.335938 1.855469 -2.347656 1.816406 -2.359375 C 1.777344 -2.367188 1.746094 -2.371094 1.722656 -2.375 L 1.722656 -2.539062 L 2.695312 -2.539062 Z "/>
</g>
<g id="glyph-0-3">
<path d="M 2.992188 0 L 1.75 0 L 1.75 -0.171875 C 1.789062 -0.171875 1.832031 -0.175781 1.878906 -0.179688 C 1.925781 -0.183594 1.964844 -0.191406 1.996094 -0.199219 C 2.046875 -0.214844 2.082031 -0.242188 2.105469 -0.28125 C 2.128906 -0.320312 2.140625 -0.371094 2.140625 -0.433594 L 2.140625 -1.738281 C 2.140625 -1.917969 2.097656 -2.058594 2.011719 -2.15625 C 1.925781 -2.253906 1.820312 -2.304688 1.699219 -2.304688 C 1.609375 -2.304688 1.523438 -2.289062 1.449219 -2.261719 C 1.375 -2.234375 1.304688 -2.199219 1.246094 -2.15625 C 1.191406 -2.117188 1.144531 -2.074219 1.113281 -2.027344 C 1.078125 -1.984375 1.054688 -1.945312 1.039062 -1.917969 L 1.039062 -0.457031 C 1.039062 -0.398438 1.050781 -0.351562 1.074219 -0.3125 C 1.097656 -0.277344 1.132812 -0.246094 1.183594 -0.226562 C 1.21875 -0.210938 1.257812 -0.195312 1.300781 -0.1875 C 1.34375 -0.179688 1.386719 -0.171875 1.429688 -0.171875 L 1.429688 0 L 0.183594 0 L 0.183594 -0.171875 C 0.226562 -0.171875 0.265625 -0.175781 0.308594 -0.179688 C 0.351562 -0.183594 0.386719 -0.191406 0.417969 -0.199219 C 0.464844 -0.214844 0.5 -0.242188 0.523438 -0.28125 C 0.546875 -0.320312 0.558594 -0.371094 0.558594 -0.433594 L 0.558594 -2 C 0.558594 -2.058594 0.546875 -2.113281 0.523438 -2.160156 C 0.496094 -2.210938 0.460938 -2.25 0.417969 -2.28125 C 0.386719 -2.300781 0.347656 -2.316406 0.300781 -2.324219 C 0.257812 -2.335938 0.207031 -2.339844 0.15625 -2.34375 L 0.15625 -2.515625 L 1.003906 -2.570312 L 1.039062 -2.535156 L 1.039062 -2.175781 L 1.050781 -2.175781 C 1.09375 -2.21875 1.144531 -2.269531 1.207031 -2.324219 C 1.269531 -2.382812 1.328125 -2.429688 1.382812 -2.464844 C 1.445312 -2.507812 1.519531 -2.542969 1.609375 -2.570312 C 1.695312 -2.597656 1.792969 -2.609375 1.902344 -2.609375 C 2.148438 -2.609375 2.328125 -2.535156 2.445312 -2.382812 C 2.5625 -2.230469 2.625 -2.027344 2.625 -1.777344 L 2.625 -0.453125 C 2.625 -0.394531 2.632812 -0.34375 2.652344 -0.308594 C 2.675781 -0.269531 2.710938 -0.242188 2.761719 -0.222656 C 2.800781 -0.203125 2.835938 -0.191406 2.867188 -0.183594 C 2.898438 -0.179688 2.9375 -0.171875 2.992188 -0.171875 Z "/>
</g>
<g id="glyph-0-4">
<path d="M 2.910156 -0.046875 L 2.078125 0.0117188 L 2.039062 -0.0273438 L 2.039062 -0.347656 L 2.027344 -0.347656 C 1.984375 -0.304688 1.9375 -0.257812 1.886719 -0.210938 C 1.835938 -0.160156 1.777344 -0.117188 1.710938 -0.078125 C 1.632812 -0.03125 1.558594 0.00390625 1.484375 0.0273438 C 1.414062 0.0507812 1.3125 0.0625 1.179688 0.0625 C 0.953125 0.0625 0.785156 -0.0078125 0.664062 -0.15625 C 0.546875 -0.300781 0.488281 -0.515625 0.488281 -0.796875 L 0.488281 -2.011719 C 0.488281 -2.070312 0.476562 -2.125 0.453125 -2.164062 C 0.429688 -2.207031 0.398438 -2.246094 0.351562 -2.277344 C 0.320312 -2.296875 0.28125 -2.3125 0.234375 -2.320312 C 0.1875 -2.328125 0.140625 -2.335938 0.0859375 -2.339844 L 0.0859375 -2.511719 L 0.933594 -2.570312 L 0.972656 -2.535156 L 0.972656 -0.769531 C 0.972656 -0.585938 1.015625 -0.449219 1.097656 -0.355469 C 1.179688 -0.261719 1.277344 -0.214844 1.394531 -0.214844 C 1.488281 -0.214844 1.574219 -0.230469 1.648438 -0.261719 C 1.71875 -0.289062 1.78125 -0.324219 1.832031 -0.363281 C 1.878906 -0.398438 1.917969 -0.4375 1.953125 -0.476562 C 1.988281 -0.519531 2.015625 -0.554688 2.035156 -0.589844 L 2.035156 -2.027344 C 2.035156 -2.085938 2.023438 -2.136719 2 -2.179688 C 1.976562 -2.222656 1.941406 -2.261719 1.898438 -2.289062 C 1.867188 -2.3125 1.820312 -2.324219 1.761719 -2.328125 C 1.699219 -2.332031 1.632812 -2.335938 1.554688 -2.339844 L 1.554688 -2.511719 L 2.480469 -2.570312 L 2.519531 -2.535156 L 2.519531 -0.519531 C 2.519531 -0.460938 2.53125 -0.410156 2.554688 -0.371094 C 2.582031 -0.328125 2.613281 -0.292969 2.65625 -0.265625 C 2.6875 -0.246094 2.722656 -0.234375 2.765625 -0.226562 C 2.808594 -0.222656 2.859375 -0.21875 2.910156 -0.214844 Z "/>
</g>
<g id="glyph-0-5">
</g>
<g id="glyph-0-6">
<path d="M 2.242188 -3.925781 L 0.460938 1.09375 L 0.125 1.09375 L 1.898438 -3.925781 Z "/>
</g>
<g id="glyph-0-7">
<path d="M 3.089844 -2.742188 L 2.894531 -2.742188 C 2.859375 -2.878906 2.785156 -3.023438 2.671875 -3.175781 C 2.558594 -3.332031 2.445312 -3.417969 2.34375 -3.433594 C 2.289062 -3.4375 2.226562 -3.445312 2.152344 -3.449219 C 2.078125 -3.453125 1.996094 -3.453125 1.902344 -3.453125 L 1.289062 -3.453125 L 1.289062 -1.984375 L 1.710938 -1.984375 C 1.839844 -1.984375 1.9375 -1.996094 2.007812 -2.023438 C 2.078125 -2.050781 2.140625 -2.089844 2.191406 -2.148438 C 2.222656 -2.183594 2.253906 -2.242188 2.285156 -2.324219 C 2.3125 -2.402344 2.332031 -2.488281 2.339844 -2.578125 L 2.53125 -2.578125 L 2.53125 -1.140625 L 2.339844 -1.140625 C 2.335938 -1.21875 2.316406 -1.304688 2.285156 -1.398438 C 2.257812 -1.496094 2.222656 -1.566406 2.191406 -1.609375 C 2.136719 -1.671875 2.074219 -1.714844 1.996094 -1.738281 C 1.917969 -1.761719 1.824219 -1.773438 1.710938 -1.773438 L 1.289062 -1.773438 L 1.289062 -0.515625 C 1.289062 -0.457031 1.300781 -0.40625 1.324219 -0.363281 C 1.347656 -0.320312 1.386719 -0.28125 1.441406 -0.253906 C 1.46875 -0.242188 1.523438 -0.226562 1.609375 -0.210938 C 1.695312 -0.195312 1.761719 -0.183594 1.804688 -0.183594 L 1.804688 0 L 0.222656 0 L 0.222656 -0.183594 C 0.273438 -0.1875 0.34375 -0.191406 0.429688 -0.199219 C 0.511719 -0.207031 0.570312 -0.21875 0.59375 -0.230469 C 0.648438 -0.25 0.683594 -0.285156 0.707031 -0.328125 C 0.730469 -0.371094 0.742188 -0.425781 0.742188 -0.488281 L 0.742188 -3.125 C 0.742188 -3.183594 0.734375 -3.234375 0.714844 -3.277344 C 0.695312 -3.320312 0.65625 -3.355469 0.59375 -3.382812 C 0.550781 -3.40625 0.488281 -3.425781 0.410156 -3.441406 C 0.332031 -3.460938 0.269531 -3.46875 0.222656 -3.472656 L 0.222656 -3.65625 L 3.089844 -3.65625 Z "/>
</g>
<g id="glyph-0-8">
<path d="M 3.753906 -1.804688 C 3.753906 -1.496094 3.695312 -1.226562 3.578125 -0.996094 C 3.460938 -0.769531 3.308594 -0.582031 3.125 -0.433594 C 2.933594 -0.289062 2.722656 -0.179688 2.488281 -0.109375 C 2.25 -0.0351562 2.007812 0 1.757812 0 L 0.242188 0 L 0.242188 -0.183594 C 0.292969 -0.183594 0.355469 -0.1875 0.4375 -0.195312 C 0.515625 -0.207031 0.570312 -0.21875 0.59375 -0.230469 C 0.648438 -0.25 0.683594 -0.285156 0.707031 -0.328125 C 0.730469 -0.371094 0.742188 -0.425781 0.742188 -0.488281 L 0.742188 -3.125 C 0.742188 -3.183594 0.730469 -3.238281 0.710938 -3.28125 C 0.691406 -3.328125 0.652344 -3.367188 0.59375 -3.394531 C 0.542969 -3.417969 0.484375 -3.4375 0.421875 -3.449219 C 0.359375 -3.460938 0.308594 -3.46875 0.261719 -3.472656 L 0.261719 -3.65625 L 1.859375 -3.65625 C 2.082031 -3.65625 2.296875 -3.621094 2.511719 -3.554688 C 2.722656 -3.488281 2.910156 -3.394531 3.066406 -3.28125 C 3.28125 -3.128906 3.449219 -2.925781 3.570312 -2.679688 C 3.695312 -2.433594 3.753906 -2.140625 3.753906 -1.804688 M 3.125 -1.808594 C 3.125 -2.054688 3.089844 -2.273438 3.023438 -2.472656 C 2.960938 -2.671875 2.863281 -2.84375 2.738281 -2.992188 C 2.621094 -3.132812 2.476562 -3.242188 2.300781 -3.324219 C 2.128906 -3.40625 1.9375 -3.445312 1.726562 -3.445312 C 1.65625 -3.445312 1.578125 -3.445312 1.488281 -3.441406 C 1.398438 -3.4375 1.332031 -3.4375 1.289062 -3.433594 L 1.289062 -0.625 C 1.289062 -0.46875 1.335938 -0.363281 1.425781 -0.300781 C 1.519531 -0.242188 1.660156 -0.210938 1.847656 -0.210938 C 2.066406 -0.210938 2.257812 -0.25 2.417969 -0.328125 C 2.582031 -0.40625 2.714844 -0.511719 2.816406 -0.648438 C 2.921875 -0.792969 3 -0.960938 3.050781 -1.148438 C 3.097656 -1.339844 3.125 -1.558594 3.125 -1.808594 Z "/>
</g>
<g id="glyph-0-9">
<path d="M 3.625 -3.472656 C 3.582031 -3.472656 3.527344 -3.460938 3.464844 -3.445312 C 3.398438 -3.425781 3.347656 -3.402344 3.304688 -3.378906 C 3.246094 -3.34375 3.199219 -3.296875 3.164062 -3.238281 C 3.128906 -3.183594 3.09375 -3.117188 3.0625 -3.039062 C 2.945312 -2.765625 2.773438 -2.339844 2.542969 -1.761719 C 2.3125 -1.183594 2.074219 -0.582031 1.832031 0.046875 L 1.617188 0.046875 C 1.371094 -0.617188 1.132812 -1.257812 0.902344 -1.875 C 0.671875 -2.492188 0.515625 -2.910156 0.433594 -3.125 C 0.414062 -3.179688 0.386719 -3.226562 0.351562 -3.265625 C 0.316406 -3.304688 0.269531 -3.34375 0.214844 -3.378906 C 0.167969 -3.410156 0.117188 -3.433594 0.0585938 -3.445312 C 0.00390625 -3.460938 -0.0507812 -3.46875 -0.0976562 -3.472656 L -0.0976562 -3.65625 L 1.414062 -3.65625 L 1.414062 -3.472656 C 1.285156 -3.464844 1.175781 -3.453125 1.089844 -3.433594 C 1 -3.414062 0.957031 -3.382812 0.957031 -3.335938 C 0.957031 -3.316406 0.960938 -3.292969 0.964844 -3.265625 C 0.972656 -3.242188 0.980469 -3.222656 0.984375 -3.207031 C 1.046875 -3.039062 1.152344 -2.761719 1.292969 -2.382812 C 1.4375 -2 1.640625 -1.460938 1.902344 -0.753906 C 2.03125 -1.074219 2.183594 -1.449219 2.351562 -1.882812 C 2.523438 -2.316406 2.636719 -2.613281 2.695312 -2.773438 C 2.753906 -2.929688 2.785156 -3.039062 2.796875 -3.101562 C 2.804688 -3.160156 2.808594 -3.210938 2.808594 -3.246094 C 2.808594 -3.285156 2.792969 -3.320312 2.757812 -3.347656 C 2.722656 -3.371094 2.675781 -3.394531 2.617188 -3.414062 C 2.558594 -3.429688 2.5 -3.445312 2.441406 -3.453125 C 2.386719 -3.460938 2.324219 -3.46875 2.265625 -3.472656 L 2.265625 -3.65625 L 3.625 -3.65625 Z "/>
</g>
</g>
</defs>
<g fill="rgb(100%, 100%, 100%)" fill-opacity="1">
<use xlink:href="#glyph-0-0" x="30" y="24.838867"/>
<use xlink:href="#glyph-0-1" x="34" y="24.838867"/>
<use xlink:href="#glyph-0-2" x="37" y="24.838867"/>
<use xlink:href="#glyph-0-1" x="40" y="24.838867"/>
<use xlink:href="#glyph-0-3" x="43" y="24.838867"/>
<use xlink:href="#glyph-0-4" x="46" y="24.838867"/>
<use xlink:href="#glyph-0-1" x="49" y="24.838867"/>
<use xlink:href="#glyph-0-5" x="52" y="24.838867"/>
<use xlink:href="#glyph-0-6" x="53" y="24.838867"/>
<use xlink:href="#glyph-0-5" x="55" y="24.838867"/>
<use xlink:href="#glyph-0-7" x="56" y="24.838867"/>
<use xlink:href="#glyph-0-8" x="59" y="24.838867"/>
<use xlink:href="#glyph-0-9" x="63" y="24.838867"/>
</g>
</svg>
