<?xml version="1.0" encoding="UTF-8"?>
<svg xmlns="http://www.w3.org/2000/svg" xmlns:xlink="http://www.w3.org/1999/xlink" width="1920" height="1080" viewBox="0 0 1920 1080">
<defs>
<g>
<g id="glyph-0-0">
<path d="M 5.34375 -1.273438 L 4.945312 0 L 2.925781 0 L 2.925781 -0.292969 C 3.035156 -0.46875 3.140625 -0.636719 3.242188 -0.792969 C 3.339844 -0.949219 3.421875 -1.105469 3.488281 -1.265625 C 3.558594 -1.433594 3.613281 -1.597656 3.644531 -1.761719 C 3.675781 -1.921875 3.695312 -2.132812 3.695312 -2.390625 C 3.695312 -2.550781 3.679688 -2.730469 3.652344 -2.941406 C 3.621094 -3.148438 3.574219 -3.332031 3.503906 -3.484375 C 3.414062 -3.675781 3.300781 -3.820312 3.164062 -3.917969 C 3.023438 -4.011719 2.859375 -4.0625 2.671875 -4.0625 C 2.460938 -4.0625 2.289062 -4.007812 2.15625 -3.902344 C 2.019531 -3.792969 1.914062 -3.65625 1.839844 -3.484375 C 1.761719 -3.316406 1.710938 -3.132812 1.6875 -2.933594 C 1.664062 -2.734375 1.648438 -2.554688 1.648438 -2.390625 C 1.648438 -2.140625 1.667969 -1.929688 1.699219 -1.765625 C 1.734375 -1.597656 1.785156 -1.433594 1.855469 -1.265625 C 1.921875 -1.109375 2.007812 -0.949219 2.109375 -0.78125 C 2.214844 -0.613281 2.316406 -0.453125 2.417969 -0.292969 L 2.417969 0 L 0.398438 0 L 0 -1.273438 L 0.21875 -1.339844 C 0.246094 -1.28125 0.289062 -1.210938 0.339844 -1.128906 C 0.390625 -1.050781 0.441406 -0.984375 0.496094 -0.929688 C 0.554688 -0.867188 0.617188 -0.816406 0.691406 -0.777344 C 0.765625 -0.738281 0.847656 -0.714844 0.933594 -0.714844 L 1.722656 -0.714844 L 1.722656 -0.789062 C 1.515625 -0.945312 1.335938 -1.09375 1.175781 -1.230469 C 1.019531 -1.371094 0.890625 -1.503906 0.789062 -1.640625 C 0.679688 -1.78125 0.601562 -1.933594 0.546875 -2.097656 C 0.496094 -2.261719 0.46875 -2.453125 0.46875 -2.664062 C 0.46875 -2.894531 0.523438 -3.109375 0.628906 -3.3125 C 0.734375 -3.511719 0.878906 -3.6875 1.0625 -3.839844 C 1.25 -3.996094 1.484375 -4.117188 1.757812 -4.210938 C 2.03125 -4.304688 2.335938 -4.351562 2.671875 -4.351562 C 3.019531 -4.351562 3.328125 -4.304688 3.601562 -4.214844 C 3.875 -4.121094 4.109375 -3.996094 4.300781 -3.835938 C 4.492188 -3.675781 4.632812 -3.496094 4.730469 -3.296875 C 4.828125 -3.097656 4.875 -2.886719 4.875 -2.664062 C 4.875 -2.449219 4.847656 -2.257812 4.789062 -2.089844 C 4.730469 -1.917969 4.648438 -1.765625 4.542969 -1.632812 C 4.441406 -1.5 4.320312 -1.367188 4.171875 -1.238281 C 4.027344 -1.105469 3.84375 -0.957031 3.621094 -0.789062 L 3.621094 -0.714844 L 4.410156 -0.714844 C 4.496094 -0.714844 4.574219 -0.734375 4.652344 -0.777344 C 4.726562 -0.816406 4.792969 -0.867188 4.847656 -0.929688 C 4.910156 -0.992188 4.964844 -1.0625 5.007812 -1.128906 C 5.050781 -1.199219 5.089844 -1.269531 5.125 -1.339844 Z "/>
</g>
</g>
</defs>
<g fill="rgb(100%, 100%, 100%)" fill-opacity="1">
<use xlink:href="#glyph-0-0" x="30" y="25.603516"/>
</g>
</svg>
