<?xml version="1.0" encoding="UTF-8"?>
<svg xmlns="http://www.w3.org/2000/svg" xmlns:xlink="http://www.w3.org/1999/xlink" width="1920" height="1080" viewBox="0 0 1920 1080">
<defs>
<g>
<g id="glyph-0-0">
<path d="M 4.410156 0 L 2.878906 0 L 2.878906 -0.171875 C 2.933594 -0.175781 3.003906 -0.179688 3.09375 -0.191406 C 3.179688 -0.199219 3.238281 -0.214844 3.273438 -0.230469 C 3.320312 -0.261719 3.359375 -0.296875 3.382812 -0.339844 C 3.40625 -0.378906 3.417969 -0.429688 3.417969 -0.488281 L 3.417969 -3.007812 L 3.382812 -3.007812 L 2.199219 -0.0546875 L 2.078125 -0.0546875 L 0.953125 -3.070312 L 0.921875 -3.070312 L 0.921875 -1 C 0.921875 -0.800781 0.933594 -0.648438 0.957031 -0.542969 C 0.984375 -0.441406 1.023438 -0.367188 1.074219 -0.320312 C 1.109375 -0.285156 1.183594 -0.253906 1.296875 -0.222656 C 1.410156 -0.191406 1.480469 -0.175781 1.515625 -0.171875 L 1.515625 0 L 0.117188 0 L 0.117188 -0.171875 C 0.191406 -0.179688 0.265625 -0.191406 0.347656 -0.210938 C 0.429688 -0.226562 0.492188 -0.253906 0.535156 -0.289062 C 0.589844 -0.335938 0.628906 -0.40625 0.652344 -0.5 C 0.671875 -0.59375 0.683594 -0.753906 0.683594 -0.972656 L 0.683594 -2.746094 C 0.683594 -2.847656 0.671875 -2.933594 0.648438 -3 C 0.621094 -3.0625 0.585938 -3.117188 0.542969 -3.15625 C 0.492188 -3.199219 0.429688 -3.234375 0.355469 -3.253906 C 0.28125 -3.277344 0.210938 -3.289062 0.140625 -3.289062 L 0.140625 -3.464844 L 1.320312 -3.464844 L 2.3125 -0.863281 L 3.160156 -3.039062 C 3.191406 -3.117188 3.21875 -3.203125 3.238281 -3.289062 C 3.261719 -3.375 3.273438 -3.433594 3.273438 -3.464844 L 4.40625 -3.464844 L 4.40625 -3.289062 C 4.359375 -3.289062 4.300781 -3.28125 4.230469 -3.269531 C 4.160156 -3.257812 4.105469 -3.242188 4.074219 -3.234375 C 4.019531 -3.210938 3.980469 -3.179688 3.960938 -3.132812 C 3.941406 -3.089844 3.933594 -3.039062 3.933594 -2.984375 L 3.933594 -0.488281 C 3.933594 -0.429688 3.941406 -0.382812 3.960938 -0.34375 C 3.980469 -0.304688 4.019531 -0.269531 4.074219 -0.242188 C 4.105469 -0.226562 4.15625 -0.210938 4.230469 -0.195312 C 4.304688 -0.183594 4.363281 -0.175781 4.410156 -0.171875 Z "/>
</g>
<g id="glyph-0-1">
<path d="M 3.601562 0 L 2.628906 0 C 2.441406 -0.289062 2.234375 -0.578125 2.003906 -0.863281 C 1.777344 -1.148438 1.539062 -1.425781 1.285156 -1.695312 L 1.222656 -1.695312 L 1.222656 -0.488281 C 1.222656 -0.433594 1.234375 -0.386719 1.253906 -0.34375 C 1.273438 -0.300781 1.3125 -0.269531 1.363281 -0.242188 C 1.390625 -0.230469 1.4375 -0.214844 1.511719 -0.199219 C 1.582031 -0.183594 1.640625 -0.175781 1.6875 -0.171875 L 1.6875 0 L 0.25 0 L 0.25 -0.171875 C 0.285156 -0.175781 0.339844 -0.179688 0.414062 -0.1875 C 0.484375 -0.195312 0.535156 -0.203125 0.5625 -0.21875 C 0.613281 -0.238281 0.648438 -0.269531 0.671875 -0.3125 C 0.691406 -0.351562 0.703125 -0.402344 0.703125 -0.460938 L 0.703125 -2.960938 C 0.703125 -3.015625 0.695312 -3.066406 0.675781 -3.105469 C 0.65625 -3.144531 0.621094 -3.179688 0.5625 -3.207031 C 0.519531 -3.226562 0.46875 -3.246094 0.40625 -3.261719 C 0.347656 -3.277344 0.292969 -3.289062 0.25 -3.289062 L 0.25 -3.464844 L 1.6875 -3.464844 L 1.6875 -3.289062 C 1.640625 -3.289062 1.585938 -3.28125 1.515625 -3.269531 C 1.449219 -3.257812 1.398438 -3.242188 1.363281 -3.234375 C 1.308594 -3.210938 1.273438 -3.179688 1.253906 -3.132812 C 1.234375 -3.089844 1.222656 -3.039062 1.222656 -2.984375 L 1.222656 -1.789062 L 1.273438 -1.789062 C 1.417969 -1.914062 1.5625 -2.042969 1.703125 -2.175781 C 1.84375 -2.3125 1.972656 -2.445312 2.089844 -2.578125 C 2.21875 -2.726562 2.3125 -2.84375 2.371094 -2.933594 C 2.429688 -3.023438 2.460938 -3.101562 2.460938 -3.167969 C 2.460938 -3.195312 2.445312 -3.214844 2.414062 -3.230469 C 2.386719 -3.246094 2.351562 -3.257812 2.3125 -3.265625 C 2.265625 -3.277344 2.226562 -3.28125 2.191406 -3.285156 C 2.152344 -3.289062 2.125 -3.289062 2.101562 -3.289062 L 2.101562 -3.464844 L 3.402344 -3.464844 L 3.402344 -3.289062 C 3.394531 -3.289062 3.386719 -3.289062 3.371094 -3.289062 C 3.351562 -3.285156 3.335938 -3.285156 3.3125 -3.285156 C 3.289062 -3.28125 3.265625 -3.277344 3.246094 -3.273438 C 3.222656 -3.269531 3.191406 -3.261719 3.15625 -3.257812 C 3.101562 -3.242188 3.039062 -3.222656 2.980469 -3.195312 C 2.917969 -3.167969 2.867188 -3.128906 2.828125 -3.089844 C 2.664062 -2.898438 2.488281 -2.699219 2.304688 -2.496094 C 2.125 -2.292969 1.941406 -2.109375 1.765625 -1.941406 C 2.011719 -1.660156 2.21875 -1.417969 2.378906 -1.21875 C 2.542969 -1.015625 2.714844 -0.800781 2.894531 -0.570312 C 2.964844 -0.484375 3.035156 -0.414062 3.105469 -0.359375 C 3.175781 -0.308594 3.234375 -0.269531 3.285156 -0.242188 C 3.328125 -0.21875 3.378906 -0.203125 3.441406 -0.191406 C 3.507812 -0.179688 3.558594 -0.175781 3.601562 -0.171875 Z "/>
</g>
<g id="glyph-0-2">
<path d="M 3.054688 -2.523438 L 2.886719 -2.523438 C 2.875 -2.582031 2.847656 -2.652344 2.808594 -2.734375 C 2.769531 -2.8125 2.726562 -2.890625 2.679688 -2.960938 C 2.632812 -3.035156 2.578125 -3.101562 2.519531 -3.15625 C 2.460938 -3.214844 2.40625 -3.246094 2.351562 -3.253906 C 2.300781 -3.261719 2.238281 -3.265625 2.160156 -3.269531 C 2.085938 -3.273438 2.015625 -3.273438 1.949219 -3.273438 L 1.804688 -3.273438 L 1.804688 -0.503906 C 1.804688 -0.449219 1.816406 -0.398438 1.839844 -0.355469 C 1.863281 -0.308594 1.902344 -0.277344 1.960938 -0.25 C 1.988281 -0.238281 2.050781 -0.226562 2.144531 -0.203125 C 2.238281 -0.1875 2.3125 -0.175781 2.363281 -0.171875 L 2.363281 0 L 0.726562 0 L 0.726562 -0.171875 C 0.773438 -0.175781 0.84375 -0.183594 0.9375 -0.191406 C 1.03125 -0.203125 1.09375 -0.214844 1.128906 -0.230469 C 1.183594 -0.25 1.222656 -0.28125 1.25 -0.320312 C 1.273438 -0.359375 1.285156 -0.414062 1.285156 -0.480469 L 1.285156 -3.273438 L 1.144531 -3.273438 C 1.09375 -3.273438 1.03125 -3.273438 0.957031 -3.269531 C 0.882812 -3.269531 0.8125 -3.261719 0.742188 -3.253906 C 0.6875 -3.246094 0.632812 -3.214844 0.574219 -3.15625 C 0.515625 -3.101562 0.464844 -3.035156 0.414062 -2.960938 C 0.367188 -2.886719 0.324219 -2.808594 0.285156 -2.726562 C 0.25 -2.644531 0.222656 -2.578125 0.207031 -2.523438 L 0.0351562 -2.523438 L 0.0351562 -3.464844 L 3.054688 -3.464844 Z "/>
</g>
</g>
</defs>
<g fill="rgb(100%, 100%, 100%)" fill-opacity="1">
<use xlink:href="#glyph-0-0" x="30" y="24.584961"/>
<use xlink:href="#glyph-0-1" x="35" y="24.584961"/>
<use xlink:href="#glyph-0-2" x="38" y="24.584961"/>
</g>
</svg>
