<?xml version="1.0" encoding="UTF-8"?>
<svg xmlns="http://www.w3.org/2000/svg" xmlns:xlink="http://www.w3.org/1999/xlink" width="854" height="480" viewBox="0 0 854 480">
<defs>
<g>
<g id="glyph-0-0">
<path d="M 2.414062 0 L 0.253906 0 L 0.253906 -0.316406 C 0.296875 -0.363281 0.351562 -0.417969 0.425781 -0.476562 C 0.5 -0.535156 0.589844 -0.597656 0.691406 -0.667969 C 0.75 -0.710938 0.824219 -0.753906 0.910156 -0.804688 C 0.996094 -0.851562 1.09375 -0.90625 1.203125 -0.964844 C 1.324219 -1.03125 1.417969 -1.085938 1.484375 -1.136719 C 1.550781 -1.183594 1.609375 -1.246094 1.664062 -1.316406 C 1.699219 -1.363281 1.726562 -1.425781 1.746094 -1.496094 C 1.769531 -1.566406 1.78125 -1.667969 1.78125 -1.800781 C 1.78125 -1.992188 1.730469 -2.132812 1.625 -2.222656 C 1.523438 -2.3125 1.390625 -2.359375 1.230469 -2.359375 C 1.128906 -2.359375 1.035156 -2.339844 0.945312 -2.300781 C 0.855469 -2.261719 0.789062 -2.207031 0.746094 -2.136719 C 0.753906 -2.089844 0.769531 -2.03125 0.785156 -1.960938 C 0.800781 -1.894531 0.808594 -1.828125 0.808594 -1.765625 C 0.808594 -1.707031 0.785156 -1.652344 0.738281 -1.609375 C 0.6875 -1.5625 0.617188 -1.539062 0.519531 -1.539062 C 0.445312 -1.539062 0.386719 -1.566406 0.34375 -1.621094 C 0.300781 -1.671875 0.28125 -1.742188 0.28125 -1.832031 C 0.28125 -1.917969 0.304688 -2 0.351562 -2.082031 C 0.398438 -2.167969 0.460938 -2.246094 0.546875 -2.316406 C 0.632812 -2.382812 0.738281 -2.441406 0.863281 -2.484375 C 0.988281 -2.527344 1.121094 -2.546875 1.265625 -2.546875 C 1.582031 -2.546875 1.832031 -2.476562 2.015625 -2.335938 C 2.203125 -2.195312 2.292969 -2.007812 2.292969 -1.773438 C 2.292969 -1.660156 2.277344 -1.558594 2.246094 -1.46875 C 2.210938 -1.375 2.160156 -1.292969 2.085938 -1.222656 C 2.003906 -1.144531 1.90625 -1.078125 1.796875 -1.023438 C 1.691406 -0.964844 1.523438 -0.886719 1.296875 -0.789062 C 1.164062 -0.726562 1.039062 -0.664062 0.925781 -0.601562 C 0.808594 -0.535156 0.714844 -0.472656 0.640625 -0.410156 L 2.414062 -0.410156 Z "/>
</g>
<g id="glyph-0-1">
<path d="M 2.65625 -0.0429688 L 1.859375 0.0078125 L 1.828125 -0.0234375 L 1.828125 -0.234375 L 1.808594 -0.238281 C 1.726562 -0.152344 1.628906 -0.078125 1.511719 -0.0195312 C 1.394531 0.0351562 1.273438 0.0664062 1.148438 0.0664062 C 1.019531 0.0664062 0.894531 0.0351562 0.773438 -0.0234375 C 0.65625 -0.078125 0.550781 -0.160156 0.460938 -0.265625 C 0.371094 -0.371094 0.296875 -0.5 0.246094 -0.648438 C 0.191406 -0.796875 0.167969 -0.960938 0.167969 -1.140625 C 0.167969 -1.304688 0.195312 -1.460938 0.25 -1.609375 C 0.308594 -1.757812 0.386719 -1.886719 0.484375 -1.996094 C 0.578125 -2.101562 0.695312 -2.183594 0.832031 -2.242188 C 0.964844 -2.304688 1.105469 -2.335938 1.246094 -2.335938 C 1.351562 -2.335938 1.457031 -2.324219 1.558594 -2.296875 C 1.660156 -2.269531 1.746094 -2.234375 1.820312 -2.191406 L 1.820312 -2.984375 C 1.820312 -3.050781 1.8125 -3.109375 1.789062 -3.164062 C 1.769531 -3.214844 1.738281 -3.253906 1.699219 -3.285156 C 1.65625 -3.3125 1.597656 -3.332031 1.527344 -3.347656 C 1.453125 -3.359375 1.375 -3.371094 1.289062 -3.375 L 1.289062 -3.519531 L 2.21875 -3.570312 L 2.253906 -3.535156 L 2.253906 -0.46875 C 2.253906 -0.417969 2.265625 -0.371094 2.285156 -0.332031 C 2.308594 -0.296875 2.335938 -0.261719 2.378906 -0.238281 C 2.40625 -0.21875 2.449219 -0.207031 2.503906 -0.203125 C 2.558594 -0.199219 2.609375 -0.195312 2.65625 -0.195312 L 2.65625 -0.0429688 M 1.820312 -0.441406 L 1.820312 -1.769531 C 1.808594 -1.8125 1.789062 -1.855469 1.761719 -1.898438 C 1.734375 -1.945312 1.699219 -1.988281 1.660156 -2.027344 C 1.613281 -2.066406 1.5625 -2.097656 1.5 -2.121094 C 1.441406 -2.148438 1.371094 -2.160156 1.292969 -2.160156 C 1.199219 -2.160156 1.117188 -2.136719 1.039062 -2.089844 C 0.960938 -2.042969 0.890625 -1.972656 0.832031 -1.882812 C 0.773438 -1.796875 0.730469 -1.6875 0.699219 -1.554688 C 0.664062 -1.421875 0.648438 -1.273438 0.648438 -1.113281 C 0.648438 -0.984375 0.660156 -0.867188 0.683594 -0.761719 C 0.710938 -0.65625 0.75 -0.558594 0.808594 -0.46875 C 0.863281 -0.382812 0.929688 -0.3125 1.015625 -0.261719 C 1.097656 -0.207031 1.199219 -0.183594 1.3125 -0.183594 C 1.4375 -0.183594 1.539062 -0.210938 1.617188 -0.261719 C 1.699219 -0.316406 1.765625 -0.375 1.820312 -0.441406 Z "/>
</g>
</g>
</defs>
<g fill="rgb(100%, 26.666667%, 26.666667%)" fill-opacity="1">
<use xlink:href="#glyph-0-0" x="30" y="24.331055"/>
<use xlink:href="#glyph-0-0" x="33" y="24.331055"/>
<use xlink:href="#glyph-0-1" x="36" y="24.331055"/>
</g>
</svg>
